<svg width="186" height="186" viewBox="0 0 186 186" fill="none" xmlns="http://www.w3.org/2000/svg">
<rect x="1" y="1" width="184" height="184" rx="3" fill="white" stroke="black" stroke-width="2"/>
<path d="M47.2236 144.1V141.54H50.6436C51.2569 141.54 51.7169 141.38 52.0236 141.06C52.3302 140.74 52.4836 140.287 52.4836 139.7C52.4836 139.113 52.3302 138.667 52.0236 138.36C51.7169 138.04 51.2569 137.88 50.6436 137.88H47.2236V135.9H50.4836C51.4969 135.9 52.3969 136.027 53.1836 136.28C53.9702 136.52 54.5902 136.913 55.0436 137.46C55.4969 138.007 55.7236 138.747 55.7236 139.68V139.96C55.7236 140.827 55.5236 141.573 55.1236 142.2C54.7236 142.813 54.1369 143.287 53.3636 143.62C52.5902 143.94 51.6302 144.1 50.4836 144.1H47.2236ZM44.4236 144.1V129.28H47.6236V144.1H44.4236ZM47.2236 137.36V135.4H50.1036C50.7302 135.4 51.1836 135.24 51.4636 134.92C51.7436 134.6 51.8836 134.173 51.8836 133.64C51.8836 133.08 51.7436 132.64 51.4636 132.32C51.1836 132 50.7302 131.84 50.1036 131.84H47.2236V129.28H49.9036C51.5836 129.28 52.8702 129.633 53.7636 130.34C54.6702 131.047 55.1236 132.053 55.1236 133.36V133.66C55.1236 134.567 54.8902 135.293 54.4236 135.84C53.9702 136.387 53.3502 136.78 52.5636 137.02C51.7902 137.247 50.9036 137.36 49.9036 137.36H47.2236ZM62.9336 144.38C61.9736 144.38 61.1202 144.233 60.3736 143.94C59.6269 143.633 58.9936 143.22 58.4736 142.7C57.9669 142.18 57.5802 141.587 57.3136 140.92C57.0469 140.24 56.9136 139.527 56.9136 138.78V138.32C56.9136 137.56 57.0469 136.84 57.3136 136.16C57.5936 135.467 57.9936 134.86 58.5136 134.34C59.0469 133.82 59.6869 133.413 60.4336 133.12C61.1802 132.813 62.0136 132.66 62.9336 132.66C63.8802 132.66 64.7202 132.813 65.4536 133.12C66.2002 133.413 66.8336 133.82 67.3536 134.34C67.8736 134.86 68.2736 135.467 68.5536 136.16C68.8336 136.84 68.9736 137.56 68.9736 138.32V138.78C68.9736 139.527 68.8402 140.24 68.5736 140.92C68.3069 141.587 67.9136 142.18 67.3936 142.7C66.8869 143.22 66.2602 143.633 65.5136 143.94C64.7669 144.233 63.9069 144.38 62.9336 144.38ZM62.9336 141.68C63.5602 141.68 64.0802 141.547 64.4936 141.28C64.9069 141.013 65.2202 140.64 65.4336 140.16C65.6602 139.68 65.7736 139.147 65.7736 138.56C65.7736 137.933 65.6602 137.387 65.4336 136.92C65.2069 136.44 64.8802 136.06 64.4536 135.78C64.0402 135.5 63.5336 135.36 62.9336 135.36C62.3469 135.36 61.8402 135.5 61.4136 135.78C60.9869 136.06 60.6602 136.44 60.4336 136.92C60.2202 137.387 60.1136 137.933 60.1136 138.56C60.1136 139.147 60.2202 139.68 60.4336 140.16C60.6469 140.64 60.9669 141.013 61.3936 141.28C61.8202 141.547 62.3336 141.68 62.9336 141.68ZM76.1468 144.38C75.1868 144.38 74.3335 144.233 73.5868 143.94C72.8402 143.633 72.2068 143.22 71.6868 142.7C71.1802 142.18 70.7935 141.587 70.5268 140.92C70.2602 140.24 70.1268 139.527 70.1268 138.78V138.32C70.1268 137.56 70.2602 136.84 70.5268 136.16C70.8068 135.467 71.2068 134.86 71.7268 134.34C72.2602 133.82 72.9002 133.413 73.6468 133.12C74.3935 132.813 75.2268 132.66 76.1468 132.66C77.0935 132.66 77.9335 132.813 78.6668 133.12C79.4135 133.413 80.0468 133.82 80.5668 134.34C81.0868 134.86 81.4868 135.467 81.7668 136.16C82.0468 136.84 82.1868 137.56 82.1868 138.32V138.78C82.1868 139.527 82.0535 140.24 81.7868 140.92C81.5202 141.587 81.1268 142.18 80.6068 142.7C80.1002 143.22 79.4735 143.633 78.7268 143.94C77.9802 144.233 77.1202 144.38 76.1468 144.38ZM76.1468 141.68C76.7735 141.68 77.2935 141.547 77.7068 141.28C78.1202 141.013 78.4335 140.64 78.6468 140.16C78.8735 139.68 78.9868 139.147 78.9868 138.56C78.9868 137.933 78.8735 137.387 78.6468 136.92C78.4202 136.44 78.0935 136.06 77.6668 135.78C77.2535 135.5 76.7468 135.36 76.1468 135.36C75.5602 135.36 75.0535 135.5 74.6268 135.78C74.2002 136.06 73.8735 136.44 73.6468 136.92C73.4335 137.387 73.3268 137.933 73.3268 138.56C73.3268 139.147 73.4335 139.68 73.6468 140.16C73.8602 140.64 74.1802 141.013 74.6068 141.28C75.0335 141.547 75.5468 141.68 76.1468 141.68ZM89.0001 144.14C87.8935 144.14 87.0001 144.007 86.3201 143.74C85.6401 143.46 85.1401 143 84.8201 142.36C84.5135 141.707 84.3601 140.827 84.3601 139.72V130.08H87.3401V139.84C87.3401 140.36 87.4735 140.76 87.7401 141.04C88.0201 141.307 88.4135 141.44 88.9201 141.44H90.5401V144.14H89.0001ZM82.7001 135.38V133.04H90.5401V135.38H82.7001ZM96.3739 144.34C94.8139 144.34 93.5939 144.02 92.7139 143.38C91.8339 142.74 91.3672 141.84 91.3139 140.68H94.1539C94.2072 141.027 94.4139 141.34 94.7739 141.62C95.1472 141.887 95.7005 142.02 96.4339 142.02C96.9939 142.02 97.4539 141.927 97.8139 141.74C98.1872 141.54 98.3739 141.26 98.3739 140.9C98.3739 140.58 98.2339 140.327 97.9539 140.14C97.6739 139.94 97.1739 139.8 96.4539 139.72L95.5939 139.64C94.2739 139.507 93.2805 139.14 92.6139 138.54C91.9605 137.94 91.6339 137.173 91.6339 136.24C91.6339 135.467 91.8272 134.82 92.2139 134.3C92.6005 133.78 93.1339 133.387 93.8139 133.12C94.5072 132.853 95.2939 132.72 96.1739 132.72C97.5872 132.72 98.7272 133.033 99.5939 133.66C100.461 134.273 100.914 135.167 100.954 136.34H98.1139C98.0605 135.98 97.8739 135.68 97.5539 135.44C97.2339 135.187 96.7605 135.06 96.1339 135.06C95.6405 135.06 95.2472 135.153 94.9539 135.34C94.6605 135.527 94.5139 135.78 94.5139 136.1C94.5139 136.407 94.6405 136.64 94.8939 136.8C95.1472 136.96 95.5605 137.073 96.1339 137.14L96.9939 137.22C98.3405 137.367 99.3872 137.74 100.134 138.34C100.881 138.94 101.254 139.747 101.254 140.76C101.254 141.493 101.054 142.133 100.654 142.68C100.254 143.213 99.6872 143.627 98.9539 143.92C98.2205 144.2 97.3605 144.34 96.3739 144.34ZM107.907 144.14C106.8 144.14 105.907 144.007 105.227 143.74C104.547 143.46 104.047 143 103.727 142.36C103.42 141.707 103.267 140.827 103.267 139.72V130.08H106.247V139.84C106.247 140.36 106.38 140.76 106.647 141.04C106.927 141.307 107.32 141.44 107.827 141.44H109.447V144.14H107.907ZM101.607 135.38V133.04H109.447V135.38H101.607ZM111.199 144V133.04H113.739V137.74H113.679C113.679 136.193 114.006 135 114.659 134.16C115.326 133.32 116.286 132.9 117.539 132.9H117.959V135.66H117.159C116.279 135.66 115.599 135.9 115.119 136.38C114.639 136.847 114.399 137.527 114.399 138.42V144H111.199ZM125.759 144V140.76H125.219V137.24C125.219 136.68 125.086 136.26 124.819 135.98C124.552 135.7 124.126 135.56 123.539 135.56C123.246 135.56 122.859 135.567 122.379 135.58C121.899 135.593 121.406 135.613 120.899 135.64C120.392 135.667 119.932 135.693 119.519 135.72V133.02C119.826 132.993 120.186 132.967 120.599 132.94C121.012 132.913 121.439 132.893 121.879 132.88C122.319 132.867 122.732 132.86 123.119 132.86C124.239 132.86 125.179 133.02 125.939 133.34C126.712 133.66 127.299 134.147 127.699 134.8C128.099 135.44 128.299 136.267 128.299 137.28V144H125.759ZM122.259 144.28C121.472 144.28 120.779 144.14 120.179 143.86C119.592 143.58 119.132 143.18 118.799 142.66C118.466 142.127 118.299 141.493 118.299 140.76C118.299 139.96 118.506 139.307 118.919 138.8C119.332 138.28 119.912 137.9 120.659 137.66C121.406 137.407 122.266 137.28 123.239 137.28H125.579V139.06H123.219C122.659 139.06 122.226 139.2 121.919 139.48C121.626 139.747 121.479 140.113 121.479 140.58C121.479 141.02 121.626 141.38 121.919 141.66C122.226 141.927 122.659 142.06 123.219 142.06C123.579 142.06 123.899 142 124.179 141.88C124.472 141.747 124.712 141.527 124.899 141.22C125.086 140.913 125.192 140.487 125.219 139.94L125.979 140.74C125.912 141.5 125.726 142.14 125.419 142.66C125.126 143.18 124.712 143.58 124.179 143.86C123.659 144.14 123.019 144.28 122.259 144.28ZM130.614 148V133.04H133.154V137.78L132.814 137.76C132.867 136.667 133.094 135.747 133.494 135C133.894 134.24 134.434 133.673 135.114 133.3C135.794 132.913 136.561 132.72 137.414 132.72C138.174 132.72 138.861 132.86 139.474 133.14C140.101 133.42 140.634 133.813 141.074 134.32C141.527 134.813 141.867 135.4 142.094 136.08C142.334 136.747 142.454 137.48 142.454 138.28V138.74C142.454 139.527 142.341 140.267 142.114 140.96C141.887 141.64 141.554 142.233 141.114 142.74C140.687 143.247 140.161 143.647 139.534 143.94C138.921 144.22 138.214 144.36 137.414 144.36C136.587 144.36 135.841 144.193 135.174 143.86C134.521 143.513 133.994 142.993 133.594 142.3C133.194 141.593 132.974 140.7 132.934 139.62L133.814 140.82V148H130.614ZM136.514 141.68C137.061 141.68 137.534 141.547 137.934 141.28C138.347 141.013 138.667 140.64 138.894 140.16C139.121 139.68 139.234 139.127 139.234 138.5C139.234 137.873 139.121 137.327 138.894 136.86C138.667 136.393 138.354 136.033 137.954 135.78C137.554 135.513 137.074 135.38 136.514 135.38C136.034 135.38 135.581 135.493 135.154 135.72C134.727 135.947 134.381 136.273 134.114 136.7C133.861 137.113 133.734 137.62 133.734 138.22V138.96C133.734 139.533 133.867 140.027 134.134 140.44C134.414 140.84 134.767 141.147 135.194 141.36C135.621 141.573 136.061 141.68 136.514 141.68Z" fill="black"/>
<path d="M62.9626 99V36H128.06V99H62.9626Z" fill="white"/>
<path fill-rule="evenodd" clip-rule="evenodd" d="M75.0853 41.25C71.4906 41.25 68.8307 44.3963 68.9498 47.8084C69.064 51.0865 68.9156 55.3321 67.8467 58.7944C66.7747 62.2668 64.9615 64.4665 62 64.749V67.9373C64.9615 68.2198 66.7747 70.4195 67.8467 73.8921C68.9156 77.3542 69.064 81.5999 68.9498 84.878C68.8307 88.2897 71.4906 91.4363 75.0858 91.4363H111.919C115.514 91.4363 118.174 88.2903 118.055 84.878C117.94 81.5999 118.089 77.3542 119.158 73.8921C120.23 70.4195 122.038 68.2198 125 67.9373V64.749C122.038 64.4665 120.23 62.2668 119.158 58.7944C118.089 55.3326 117.94 51.0865 118.055 47.8084C118.174 44.3968 115.514 41.25 111.919 41.25H75.0853ZM104.712 72.1428C104.712 76.8413 101.207 79.6908 95.3916 79.6908H85.4915C85.2083 79.6908 84.9367 79.5782 84.7365 79.3779C84.5362 79.1776 84.4237 78.9062 84.4237 78.6229V54.0636C84.4237 53.7804 84.5362 53.5088 84.7365 53.3085C84.9367 53.1083 85.2083 52.9958 85.4915 52.9958H95.3351C100.184 52.9958 103.367 55.6225 103.367 59.6556C103.367 62.4862 101.226 65.0207 98.4983 65.4643V65.6124C102.212 66.0198 104.712 68.5909 104.712 72.1428ZM94.3122 56.3807H88.6671V64.3539H93.4215C97.0968 64.3539 99.1235 62.874 99.1235 60.2285C99.1235 57.7496 97.3808 56.3807 94.3122 56.3807ZM88.6671 67.5178V76.3048H94.5198C98.3463 76.3048 100.373 74.7691 100.373 71.8835C100.373 68.9973 98.2896 67.5173 94.2736 67.5173L88.6671 67.5178Z" fill="black"/>
</svg>
