<svg width="186" height="186" viewBox="0 0 186 186" fill="none" xmlns="http://www.w3.org/2000/svg">
<rect x="1" y="1" width="184" height="184" rx="3" fill="white" stroke="black" stroke-width="2"/>
<path d="M80.4021 144.38C79.0821 144.38 77.9487 144.153 77.0021 143.7C76.0554 143.233 75.2821 142.627 74.6821 141.88C74.0821 141.12 73.6354 140.307 73.3421 139.44C73.0621 138.56 72.9221 137.707 72.9221 136.88V136.44C72.9221 135.533 73.0687 134.64 73.3621 133.76C73.6554 132.867 74.1021 132.06 74.7021 131.34C75.3154 130.62 76.0821 130.047 77.0021 129.62C77.9354 129.18 79.0354 128.96 80.3021 128.96C81.6221 128.96 82.7887 129.207 83.8021 129.7C84.8154 130.193 85.6221 130.88 86.2221 131.76C86.8354 132.627 87.1954 133.647 87.3021 134.82H84.0021C83.9087 134.233 83.6954 133.733 83.3621 133.32C83.0287 132.907 82.5954 132.587 82.0621 132.36C81.5421 132.133 80.9554 132.02 80.3021 132.02C79.6487 132.02 79.0687 132.133 78.5621 132.36C78.0554 132.587 77.6287 132.907 77.2821 133.32C76.9487 133.733 76.6887 134.227 76.5021 134.8C76.3287 135.36 76.2421 135.987 76.2421 136.68C76.2421 137.36 76.3287 137.987 76.5021 138.56C76.6887 139.12 76.9554 139.613 77.3021 140.04C77.6621 140.453 78.1021 140.773 78.6221 141C79.1421 141.213 79.7354 141.32 80.4021 141.32C81.4154 141.32 82.2687 141.073 82.9621 140.58C83.6687 140.087 84.0954 139.407 84.2421 138.54H87.5221C87.4021 139.607 87.0421 140.587 86.4421 141.48C85.8554 142.36 85.0487 143.067 84.0221 143.6C83.0087 144.12 81.8021 144.38 80.4021 144.38ZM94.3782 144.38C93.0582 144.38 91.9448 144.173 91.0382 143.76C90.1315 143.333 89.4448 142.76 88.9782 142.04C88.5115 141.307 88.2782 140.467 88.2782 139.52H91.4582C91.4582 139.893 91.5582 140.24 91.7582 140.56C91.9715 140.88 92.2915 141.14 92.7182 141.34C93.1448 141.527 93.6982 141.62 94.3782 141.62C94.9915 141.62 95.5048 141.54 95.9182 141.38C96.3315 141.22 96.6448 141 96.8582 140.72C97.0715 140.427 97.1782 140.093 97.1782 139.72C97.1782 139.253 96.9782 138.887 96.5782 138.62C96.1782 138.34 95.5315 138.16 94.6382 138.08L93.5382 137.98C92.0848 137.86 90.9248 137.407 90.0582 136.62C89.1915 135.833 88.7582 134.793 88.7582 133.5C88.7582 132.567 88.9782 131.76 89.4182 131.08C89.8715 130.4 90.4982 129.88 91.2982 129.52C92.0982 129.147 93.0448 128.96 94.1382 128.96C95.2848 128.96 96.2648 129.16 97.0782 129.56C97.9048 129.947 98.5382 130.5 98.9782 131.22C99.4182 131.927 99.6382 132.76 99.6382 133.72H96.4382C96.4382 133.36 96.3515 133.033 96.1782 132.74C96.0048 132.433 95.7448 132.187 95.3982 132C95.0648 131.813 94.6448 131.72 94.1382 131.72C93.6582 131.72 93.2515 131.8 92.9182 131.96C92.5982 132.12 92.3582 132.34 92.1982 132.62C92.0382 132.887 91.9582 133.18 91.9582 133.5C91.9582 133.913 92.1048 134.273 92.3982 134.58C92.6915 134.887 93.1715 135.067 93.8382 135.12L94.9582 135.22C96.0248 135.313 96.9648 135.547 97.7782 135.92C98.5915 136.28 99.2248 136.78 99.6782 137.42C100.145 138.047 100.378 138.813 100.378 139.72C100.378 140.653 100.131 141.473 99.6382 142.18C99.1582 142.873 98.4715 143.413 97.5782 143.8C96.6848 144.187 95.6182 144.38 94.3782 144.38ZM107.318 144.38C105.998 144.38 104.885 144.173 103.978 143.76C103.071 143.333 102.385 142.76 101.918 142.04C101.451 141.307 101.218 140.467 101.218 139.52H104.398C104.398 139.893 104.498 140.24 104.698 140.56C104.911 140.88 105.231 141.14 105.658 141.34C106.085 141.527 106.638 141.62 107.318 141.62C107.931 141.62 108.445 141.54 108.858 141.38C109.271 141.22 109.585 141 109.798 140.72C110.011 140.427 110.118 140.093 110.118 139.72C110.118 139.253 109.918 138.887 109.518 138.62C109.118 138.34 108.471 138.16 107.578 138.08L106.478 137.98C105.025 137.86 103.865 137.407 102.998 136.62C102.131 135.833 101.698 134.793 101.698 133.5C101.698 132.567 101.918 131.76 102.358 131.08C102.811 130.4 103.438 129.88 104.238 129.52C105.038 129.147 105.985 128.96 107.078 128.96C108.225 128.96 109.205 129.16 110.018 129.56C110.845 129.947 111.478 130.5 111.918 131.22C112.358 131.927 112.578 132.76 112.578 133.72H109.378C109.378 133.36 109.291 133.033 109.118 132.74C108.945 132.433 108.685 132.187 108.338 132C108.005 131.813 107.585 131.72 107.078 131.72C106.598 131.72 106.191 131.8 105.858 131.96C105.538 132.12 105.298 132.34 105.138 132.62C104.978 132.887 104.898 133.18 104.898 133.5C104.898 133.913 105.045 134.273 105.338 134.58C105.631 134.887 106.111 135.067 106.778 135.12L107.898 135.22C108.965 135.313 109.905 135.547 110.718 135.92C111.531 136.28 112.165 136.78 112.618 137.42C113.085 138.047 113.318 138.813 113.318 139.72C113.318 140.653 113.071 141.473 112.578 142.18C112.098 142.873 111.411 143.413 110.518 143.8C109.625 144.187 108.558 144.38 107.318 144.38Z" fill="black"/>
<path d="M62.9627 99V36H128.06V99H62.9627Z" fill="white"/>
<path fill-rule="evenodd" clip-rule="evenodd" d="M119 37L114.147 93.3684L91.5 100L68.8529 93.3684L64 37H119ZM78.2366 73.4737H84.7071L84.8651 77.6184L91.5 79.9369L98.1349 77.6184L98.6151 70.1579H84.3849L84.0563 63.5263H98.9437L99.4239 56.8947H77.1055L76.6189 50.2632H106.223L105.414 63.5263L104.277 82.5921L91.5 86.9052L78.7231 82.5921L78.2366 73.4737Z" fill="black"/>
</svg>
