<svg width="66" height="67" viewBox="0 0 66 67" fill="none" xmlns="http://www.w3.org/2000/svg">
<rect x="1" y="1.83334" width="64" height="64" rx="3" stroke="black" stroke-width="2"/>
<path d="M31.1241 31.746C30.3546 31.746 29.7471 32.446 29.7471 33.3C29.7471 34.154 30.3681 34.854 31.1241 34.854C31.8936 34.854 32.5011 34.154 32.5011 33.3C32.5146 32.446 31.8936 31.746 31.1241 31.746ZM36.0516 31.746C35.2821 31.746 34.6746 32.446 34.6746 33.3C34.6746 34.154 35.2956 34.854 36.0516 34.854C36.8211 34.854 37.4286 34.154 37.4286 33.3C37.4286 32.446 36.8211 31.746 36.0516 31.746Z" fill="black"/>
<path d="M42.6126 20H24.5226C22.9971 20 21.7551 21.288 21.7551 22.884V41.812C21.7551 43.408 22.9971 44.696 24.5226 44.696H39.8316L39.1161 42.106L40.8441 43.772L42.4776 45.34L45.3801 48V22.884C45.3801 21.288 44.1381 20 42.6126 20ZM37.4016 38.284C37.4016 38.284 36.9156 37.682 36.5106 37.15C38.2791 36.632 38.9541 35.484 38.9541 35.484C38.4006 35.862 37.8741 36.128 37.4016 36.31C36.7266 36.604 36.0786 36.8 35.4441 36.912C34.1481 37.164 32.9601 37.094 31.9476 36.898C31.1781 36.744 30.5166 36.52 29.9631 36.296C29.6526 36.17 29.3151 36.016 28.9776 35.82C28.9371 35.792 28.8966 35.778 28.8561 35.75C28.8291 35.736 28.8156 35.722 28.8021 35.708C28.5591 35.568 28.4241 35.47 28.4241 35.47C28.4241 35.47 29.0721 36.59 30.7866 37.122C30.3816 37.654 29.8821 38.284 29.8821 38.284C26.8986 38.186 25.7646 36.156 25.7646 36.156C25.7646 31.648 27.7086 27.994 27.7086 27.994C29.6526 26.482 31.5021 26.524 31.5021 26.524L31.6371 26.692C29.2071 27.42 28.0866 28.526 28.0866 28.526C28.0866 28.526 28.3836 28.358 28.8831 28.12C30.3276 27.462 31.4751 27.28 31.9476 27.238C32.0286 27.224 32.0961 27.21 32.1771 27.21C33.0006 27.098 33.9321 27.07 34.9041 27.182C36.1866 27.336 37.5636 27.728 38.9676 28.526C38.9676 28.526 37.9011 27.476 35.6061 26.748L35.7951 26.524C35.7951 26.524 37.6446 26.482 39.5886 27.994C39.5886 27.994 41.5326 31.648 41.5326 36.156C41.5326 36.156 40.3851 38.186 37.4016 38.284V38.284Z" fill="black"/>
</svg>
