<svg width="186" height="186" viewBox="0 0 186 186" fill="none" xmlns="http://www.w3.org/2000/svg">
<rect x="1" y="1" width="184" height="184" rx="3" fill="white"/>
<rect x="1" y="1" width="184" height="184" rx="3" stroke="black" stroke-width="2"/>
<path d="M114.233 62.7833L95.2167 43.7666C94.6333 43.1833 93.8167 42.8333 93 42.8333C92.1833 42.8333 91.3667 43.1833 90.7833 43.7666L86.7 47.85L91.4833 52.6333C91.95 52.4 92.4167 52.2833 93 52.2833C94.9833 52.2833 96.5 53.8 96.5 55.7833C96.5 56.3666 96.3833 56.8333 96.15 57.3L100.817 61.9666C101.283 61.7333 101.75 61.6166 102.333 61.6166C104.317 61.6166 105.833 63.1333 105.833 65.1166C105.833 67.1 104.317 68.6166 102.333 68.6166C100.35 68.6166 98.8333 67.1 98.8333 65.1166C98.8333 64.5333 98.95 64.0666 99.1833 63.6L94.5167 58.9333C94.4 58.9333 94.2833 59.05 94.1667 59.05V71.1833C95.5667 71.65 96.5 72.9333 96.5 74.45C96.5 76.4333 94.9833 77.95 93 77.95C91.0167 77.95 89.5 76.4333 89.5 74.45C89.5 72.9333 90.4333 71.65 91.8333 71.1833V58.9333C90.4333 58.4666 89.5 57.1833 89.5 55.6666C89.5 55.0833 89.6167 54.6166 89.85 54.15L85.0667 49.3666L71.7667 62.7833C71.1833 63.3666 70.8333 64.1833 70.8333 65C70.8333 65.8166 71.1833 66.6333 71.7667 67.2166L90.7833 86.2333C91.3667 86.8167 92.1833 87.1666 93 87.1666C93.8167 87.1666 94.6333 86.8167 95.2167 86.2333L114.233 67.2166C114.817 66.6333 115.167 65.8166 115.167 65C115.167 64.1833 114.817 63.3666 114.233 62.7833Z" fill="black"/>
<path d="M85.9541 144.38C84.6475 144.38 83.5075 144.167 82.5341 143.74C81.5608 143.3 80.7541 142.713 80.1141 141.98C79.4875 141.247 79.0208 140.433 78.7141 139.54C78.4075 138.647 78.2541 137.753 78.2541 136.86V136.42C78.2541 135.5 78.4075 134.6 78.7141 133.72C79.0208 132.84 79.4808 132.04 80.0941 131.32C80.7208 130.6 81.4941 130.027 82.4141 129.6C83.3475 129.173 84.4208 128.96 85.6341 128.96C86.9541 128.96 88.1208 129.207 89.1341 129.7C90.1475 130.18 90.9608 130.853 91.5741 131.72C92.1875 132.573 92.5408 133.567 92.6341 134.7H89.3541C89.2741 134.167 89.0608 133.7 88.7141 133.3C88.3808 132.9 87.9475 132.587 87.4141 132.36C86.8941 132.133 86.3008 132.02 85.6341 132.02C84.9941 132.02 84.4208 132.133 83.9141 132.36C83.4208 132.587 82.9941 132.907 82.6341 133.32C82.2875 133.733 82.0208 134.227 81.8341 134.8C81.6608 135.36 81.5741 135.98 81.5741 136.66C81.5741 137.367 81.6675 138.013 81.8541 138.6C82.0541 139.173 82.3408 139.673 82.7141 140.1C83.0875 140.513 83.5475 140.833 84.0941 141.06C84.6541 141.287 85.2741 141.4 85.9541 141.4C86.8608 141.4 87.6475 141.213 88.3141 140.84C88.9808 140.467 89.4608 139.973 89.7541 139.36L89.3541 141.6V138.12H92.3741V141.24C91.7475 142.253 90.8808 143.033 89.7741 143.58C88.6808 144.113 87.4075 144.38 85.9541 144.38ZM85.5341 138.76V136.4H93.5741V138.76H85.5341ZM95.6343 144V133.04H98.8343V144H95.6343ZM94.1743 135.4V133.04H98.8343V135.4H94.1743ZM96.8743 131.96C96.2743 131.96 95.8276 131.807 95.5343 131.5C95.2543 131.18 95.1143 130.78 95.1143 130.3C95.1143 129.807 95.2543 129.407 95.5343 129.1C95.8276 128.78 96.2743 128.62 96.8743 128.62C97.4743 128.62 97.9143 128.78 98.1943 129.1C98.4876 129.407 98.6343 129.807 98.6343 130.3C98.6343 130.78 98.4876 131.18 98.1943 131.5C97.9143 131.807 97.4743 131.96 96.8743 131.96ZM106.374 144.14C105.267 144.14 104.374 144.007 103.694 143.74C103.014 143.46 102.514 143 102.194 142.36C101.887 141.707 101.734 140.827 101.734 139.72V130.08H104.714V139.84C104.714 140.36 104.847 140.76 105.114 141.04C105.394 141.307 105.787 141.44 106.294 141.44H107.914V144.14H106.374ZM100.074 135.38V133.04H107.914V135.38H100.074Z" fill="black"/>
</svg>
