<svg width="186" height="186" viewBox="0 0 186 186" fill="none" xmlns="http://www.w3.org/2000/svg">
<rect x="1" y="1" width="184" height="184" rx="3" fill="white" stroke="black" stroke-width="2"/>
<path d="M75.2171 144V129.4H78.4971V144H75.2171ZM65.7771 144V129.4H69.0571V144H65.7771ZM68.4771 138.1V135.22H75.7971V138.1H68.4771ZM84.2732 144V131.86H87.5532V144H84.2732ZM80.1732 132.26V129.4H91.6732V132.26H80.1732ZM93.3365 144V129.4H97.8565L101.197 137.6H101.577L104.877 129.4H109.477V144H106.237V131.54L106.697 131.58L102.837 141.04H99.7165L95.8365 131.58L96.3365 131.54V144H93.3365ZM112.351 144V129.4H115.631V144H112.351ZM115.231 144V141.12H121.351V144H115.231Z" fill="black"/>
<path d="M62.9626 99V36H128.06V99H62.9626Z" fill="white"/>
<path d="M118.642 32.4307C118.386 32.1557 118.019 32 117.636 32H64.3645C63.981 32 63.6135 32.1557 63.3579 32.4307C63.0969 32.7058 62.9691 33.0742 63.0064 33.4478L67.8051 85.8241C67.8531 86.3742 68.2472 86.8309 68.7904 86.9865L90.6219 93.0581C90.739 93.0944 90.8668 93.11 90.9947 93.11C91.1225 93.11 91.245 93.0944 91.3675 93.0581L113.215 86.9865C113.758 86.8309 114.147 86.3742 114.2 85.8241L118.994 33.4478C119.031 33.0742 118.903 32.7058 118.642 32.4307ZM107.154 50.4897H81.5037L82.1162 57.2515H106.536L104.704 77.2357L90.9893 81.273L90.8562 81.2315L77.3014 77.2305L76.5611 69.0884H83.2027L83.4903 72.2487L91.0692 73.7952L98.5097 72.2487L99.3033 63.6967H76.0658L74.2603 44.029H107.745L107.154 50.4897Z" fill="black"/>
</svg>
