<svg width="187" height="186" viewBox="0 0 187 186" fill="none" xmlns="http://www.w3.org/2000/svg">
<rect x="1.5" y="1" width="184" height="184" rx="3" fill="black"/>
<rect x="1.5" y="1" width="184" height="184" rx="3" stroke="black" stroke-width="2"/>
<path d="M65.5 93V37H121.5V93H65.5Z" fill="white"/>
<path d="M102.115 78.9176C103.191 80.666 104.361 82.3414 106.839 82.3414C108.92 82.3414 110.012 81.3069 110.012 79.8758C110.012 78.1631 108.883 77.5549 106.593 76.5578L105.338 76.0227C101.715 74.4858 99.3053 72.56 99.3053 68.4923C99.3053 64.7434 102.175 61.8905 106.66 61.8905C109.854 61.8905 112.148 62.9965 113.803 65.8929L109.892 68.3927C109.032 66.8558 108.102 66.2507 106.66 66.2507C105.188 66.2507 104.257 67.1794 104.257 68.3927C104.257 69.8922 105.19 70.4989 107.344 71.4276L108.6 71.9627C112.87 73.7811 115.278 75.6385 115.278 79.8136C115.278 84.3122 111.725 86.7778 106.956 86.7778C102.29 86.7778 99.6413 84.4367 98.1667 81.5387L102.115 78.9176ZM84.092 79.0451C84.8791 80.4545 86.0753 81.5387 87.7958 81.5387C89.4416 81.5387 90.3889 80.8885 90.3889 78.3607V61.8889H95.5736V79.1571C95.5736 84.3947 92.5356 86.7778 88.0991 86.7778C84.0904 86.7778 81.1971 84.0618 80.018 81.5387L84.092 79.0451Z" fill="black"/>
<path d="M46.692 144.38C45.5854 144.38 44.6254 144.173 43.812 143.76C43.012 143.333 42.392 142.72 41.952 141.92C41.5254 141.12 41.312 140.147 41.312 139V138.26H44.552V139.18C44.552 139.82 44.7387 140.34 45.112 140.74C45.4987 141.127 46.0254 141.32 46.692 141.32C47.3454 141.32 47.8587 141.127 48.232 140.74C48.6187 140.34 48.812 139.82 48.812 139.18V131.86H52.092V139C52.092 140.147 51.872 141.12 51.432 141.92C51.0054 142.72 50.3854 143.333 49.572 143.76C48.772 144.173 47.812 144.38 46.692 144.38ZM43.012 132.26V129.4H52.092V132.26H43.012ZM61.1636 144V140.76H60.6236V137.24C60.6236 136.68 60.4903 136.26 60.2236 135.98C59.9569 135.7 59.5303 135.56 58.9436 135.56C58.6503 135.56 58.2636 135.567 57.7836 135.58C57.3036 135.593 56.8103 135.613 56.3036 135.64C55.7969 135.667 55.3369 135.693 54.9236 135.72V133.02C55.2303 132.993 55.5903 132.967 56.0036 132.94C56.4169 132.913 56.8436 132.893 57.2836 132.88C57.7236 132.867 58.1369 132.86 58.5236 132.86C59.6436 132.86 60.5836 133.02 61.3436 133.34C62.1169 133.66 62.7036 134.147 63.1036 134.8C63.5036 135.44 63.7036 136.267 63.7036 137.28V144H61.1636ZM57.6636 144.28C56.8769 144.28 56.1836 144.14 55.5836 143.86C54.9969 143.58 54.5369 143.18 54.2036 142.66C53.8703 142.127 53.7036 141.493 53.7036 140.76C53.7036 139.96 53.9103 139.307 54.3236 138.8C54.7369 138.28 55.3169 137.9 56.0636 137.66C56.8103 137.407 57.6703 137.28 58.6436 137.28H60.9836V139.06H58.6236C58.0636 139.06 57.6303 139.2 57.3236 139.48C57.0303 139.747 56.8836 140.113 56.8836 140.58C56.8836 141.02 57.0303 141.38 57.3236 141.66C57.6303 141.927 58.0636 142.06 58.6236 142.06C58.9836 142.06 59.3036 142 59.5836 141.88C59.8769 141.747 60.1169 141.527 60.3036 141.22C60.4903 140.913 60.5969 140.487 60.6236 139.94L61.3836 140.74C61.3169 141.5 61.1303 142.14 60.8236 142.66C60.5303 143.18 60.1169 143.58 59.5836 143.86C59.0636 144.14 58.4236 144.28 57.6636 144.28ZM67.9433 144L64.6633 133.04H67.9633L71.0433 144H67.9433ZM68.9433 144V141.34H72.1633V144H68.9433ZM70.1233 144L72.7833 133.04H75.8633L73.0233 144H70.1233ZM83.8011 144V140.76H83.2611V137.24C83.2611 136.68 83.1278 136.26 82.8611 135.98C82.5944 135.7 82.1678 135.56 81.5811 135.56C81.2878 135.56 80.9011 135.567 80.4211 135.58C79.9411 135.593 79.4478 135.613 78.9411 135.64C78.4344 135.667 77.9744 135.693 77.5611 135.72V133.02C77.8678 132.993 78.2278 132.967 78.6411 132.94C79.0544 132.913 79.4811 132.893 79.9211 132.88C80.3611 132.867 80.7744 132.86 81.1611 132.86C82.2811 132.86 83.2211 133.02 83.9811 133.34C84.7544 133.66 85.3411 134.147 85.7411 134.8C86.1411 135.44 86.3411 136.267 86.3411 137.28V144H83.8011ZM80.3011 144.28C79.5144 144.28 78.8211 144.14 78.2211 143.86C77.6344 143.58 77.1744 143.18 76.8411 142.66C76.5078 142.127 76.3411 141.493 76.3411 140.76C76.3411 139.96 76.5478 139.307 76.9611 138.8C77.3744 138.28 77.9544 137.9 78.7011 137.66C79.4478 137.407 80.3078 137.28 81.2811 137.28H83.6211V139.06H81.2611C80.7011 139.06 80.2678 139.2 79.9611 139.48C79.6678 139.747 79.5211 140.113 79.5211 140.58C79.5211 141.02 79.6678 141.38 79.9611 141.66C80.2678 141.927 80.7011 142.06 81.2611 142.06C81.6211 142.06 81.9411 142 82.2211 141.88C82.5144 141.747 82.7544 141.527 82.9411 141.22C83.1278 140.913 83.2344 140.487 83.2611 139.94L84.0211 140.74C83.9544 141.5 83.7678 142.14 83.4611 142.66C83.1678 143.18 82.7544 143.58 82.2211 143.86C81.7011 144.14 81.0611 144.28 80.3011 144.28ZM92.8161 144.34C91.2561 144.34 90.0361 144.02 89.1561 143.38C88.2761 142.74 87.8094 141.84 87.7561 140.68H90.5961C90.6494 141.027 90.8561 141.34 91.2161 141.62C91.5894 141.887 92.1428 142.02 92.8761 142.02C93.4361 142.02 93.8961 141.927 94.2561 141.74C94.6294 141.54 94.8161 141.26 94.8161 140.9C94.8161 140.58 94.6761 140.327 94.3961 140.14C94.1161 139.94 93.6161 139.8 92.8961 139.72L92.0361 139.64C90.7161 139.507 89.7228 139.14 89.0561 138.54C88.4028 137.94 88.0761 137.173 88.0761 136.24C88.0761 135.467 88.2694 134.82 88.6561 134.3C89.0428 133.78 89.5761 133.387 90.2561 133.12C90.9494 132.853 91.7361 132.72 92.6161 132.72C94.0294 132.72 95.1694 133.033 96.0361 133.66C96.9028 134.273 97.3561 135.167 97.3961 136.34H94.5561C94.5028 135.98 94.3161 135.68 93.9961 135.44C93.6761 135.187 93.2028 135.06 92.5761 135.06C92.0828 135.06 91.6894 135.153 91.3961 135.34C91.1028 135.527 90.9561 135.78 90.9561 136.1C90.9561 136.407 91.0828 136.64 91.3361 136.8C91.5894 136.96 92.0028 137.073 92.5761 137.14L93.4361 137.22C94.7828 137.367 95.8294 137.74 96.5761 138.34C97.3228 138.94 97.6961 139.747 97.6961 140.76C97.6961 141.493 97.4961 142.133 97.0961 142.68C96.6961 143.213 96.1294 143.627 95.3961 143.92C94.6628 144.2 93.8028 144.34 92.8161 144.34ZM104.289 144.38C103.343 144.38 102.516 144.227 101.809 143.92C101.116 143.6 100.536 143.173 100.069 142.64C99.6027 142.107 99.256 141.507 99.0294 140.84C98.8027 140.16 98.6894 139.46 98.6894 138.74V138.36C98.6894 137.613 98.8094 136.9 99.0494 136.22C99.2894 135.527 99.6427 134.913 100.109 134.38C100.576 133.847 101.156 133.427 101.849 133.12C102.556 132.813 103.363 132.66 104.269 132.66C105.256 132.66 106.129 132.853 106.889 133.24C107.649 133.613 108.256 134.14 108.709 134.82C109.163 135.5 109.416 136.28 109.469 137.16H106.329C106.276 136.667 106.076 136.253 105.729 135.92C105.396 135.573 104.909 135.4 104.269 135.4C103.736 135.4 103.289 135.533 102.929 135.8C102.583 136.067 102.323 136.433 102.149 136.9C101.976 137.367 101.889 137.92 101.889 138.56C101.889 139.147 101.969 139.68 102.129 140.16C102.289 140.627 102.543 140.993 102.889 141.26C103.249 141.513 103.716 141.64 104.289 141.64C104.716 141.64 105.076 141.567 105.369 141.42C105.676 141.26 105.916 141.047 106.089 140.78C106.276 140.5 106.389 140.18 106.429 139.82H109.549C109.509 140.727 109.256 141.527 108.789 142.22C108.323 142.9 107.703 143.433 106.929 143.82C106.156 144.193 105.276 144.38 104.289 144.38ZM111.196 144V133.04H113.736V137.74H113.676C113.676 136.193 114.003 135 114.656 134.16C115.323 133.32 116.283 132.9 117.536 132.9H117.956V135.66H117.156C116.276 135.66 115.596 135.9 115.116 136.38C114.636 136.847 114.396 137.527 114.396 138.42V144H111.196ZM119.734 144V133.04H122.934V144H119.734ZM118.274 135.4V133.04H122.934V135.4H118.274ZM120.974 131.96C120.374 131.96 119.927 131.807 119.634 131.5C119.354 131.18 119.214 130.78 119.214 130.3C119.214 129.807 119.354 129.407 119.634 129.1C119.927 128.78 120.374 128.62 120.974 128.62C121.574 128.62 122.014 128.78 122.294 129.1C122.587 129.407 122.734 129.807 122.734 130.3C122.734 130.78 122.587 131.18 122.294 131.5C122.014 131.807 121.574 131.96 120.974 131.96ZM125.494 148V133.04H128.034V137.78L127.694 137.76C127.747 136.667 127.974 135.747 128.374 135C128.774 134.24 129.314 133.673 129.994 133.3C130.674 132.913 131.44 132.72 132.294 132.72C133.054 132.72 133.74 132.86 134.354 133.14C134.98 133.42 135.514 133.813 135.954 134.32C136.407 134.813 136.747 135.4 136.974 136.08C137.214 136.747 137.334 137.48 137.334 138.28V138.74C137.334 139.527 137.22 140.267 136.994 140.96C136.767 141.64 136.434 142.233 135.994 142.74C135.567 143.247 135.04 143.647 134.414 143.94C133.8 144.22 133.094 144.36 132.294 144.36C131.467 144.36 130.72 144.193 130.054 143.86C129.4 143.513 128.874 142.993 128.474 142.3C128.074 141.593 127.854 140.7 127.814 139.62L128.694 140.82V148H125.494ZM131.394 141.68C131.94 141.68 132.414 141.547 132.814 141.28C133.227 141.013 133.547 140.64 133.774 140.16C134 139.68 134.114 139.127 134.114 138.5C134.114 137.873 134 137.327 133.774 136.86C133.547 136.393 133.234 136.033 132.834 135.78C132.434 135.513 131.954 135.38 131.394 135.38C130.914 135.38 130.46 135.493 130.034 135.72C129.607 135.947 129.26 136.273 128.994 136.7C128.74 137.113 128.614 137.62 128.614 138.22V138.96C128.614 139.533 128.747 140.027 129.014 140.44C129.294 140.84 129.647 141.147 130.074 141.36C130.5 141.573 130.94 141.68 131.394 141.68ZM144.136 144.14C143.029 144.14 142.136 144.007 141.456 143.74C140.776 143.46 140.276 143 139.956 142.36C139.649 141.707 139.496 140.827 139.496 139.72V130.08H142.476V139.84C142.476 140.36 142.609 140.76 142.876 141.04C143.156 141.307 143.549 141.44 144.056 141.44H145.676V144.14H144.136ZM137.836 135.38V133.04H145.676V135.38H137.836Z" fill="white"/>
</svg>
