<svg width="187" height="186" viewBox="0 0 187 186" fill="none" xmlns="http://www.w3.org/2000/svg">
<rect x="1.85315" y="1" width="184" height="184" rx="3" fill="black" stroke="black" stroke-width="2"/>
<path d="M52.66 144V129.4H58.04L63.54 141.34H64.22L63.82 141.7V129.4H66.9V144H61.48L55.98 132.06H55.3L55.7 131.7V144H52.66ZM74.9395 144.38C73.9795 144.38 73.1262 144.233 72.3795 143.94C71.6328 143.633 70.9995 143.22 70.4795 142.7C69.9728 142.18 69.5862 141.587 69.3195 140.92C69.0528 140.24 68.9195 139.527 68.9195 138.78V138.32C68.9195 137.56 69.0528 136.84 69.3195 136.16C69.5995 135.467 69.9995 134.86 70.5195 134.34C71.0528 133.82 71.6928 133.413 72.4395 133.12C73.1862 132.813 74.0195 132.66 74.9395 132.66C75.8862 132.66 76.7262 132.813 77.4595 133.12C78.2062 133.413 78.8395 133.82 79.3595 134.34C79.8795 134.86 80.2795 135.467 80.5595 136.16C80.8395 136.84 80.9795 137.56 80.9795 138.32V138.78C80.9795 139.527 80.8462 140.24 80.5795 140.92C80.3128 141.587 79.9195 142.18 79.3995 142.7C78.8928 143.22 78.2662 143.633 77.5195 143.94C76.7728 144.233 75.9128 144.38 74.9395 144.38ZM74.9395 141.68C75.5662 141.68 76.0862 141.547 76.4995 141.28C76.9128 141.013 77.2262 140.64 77.4395 140.16C77.6662 139.68 77.7795 139.147 77.7795 138.56C77.7795 137.933 77.6662 137.387 77.4395 136.92C77.2128 136.44 76.8862 136.06 76.4595 135.78C76.0462 135.5 75.5395 135.36 74.9395 135.36C74.3528 135.36 73.8462 135.5 73.4195 135.78C72.9928 136.06 72.6662 136.44 72.4395 136.92C72.2262 137.387 72.1195 137.933 72.1195 138.56C72.1195 139.147 72.2262 139.68 72.4395 140.16C72.6528 140.64 72.9728 141.013 73.3995 141.28C73.8262 141.547 74.3395 141.68 74.9395 141.68ZM87.3328 144.36C86.5594 144.36 85.8528 144.22 85.2128 143.94C84.5861 143.66 84.0394 143.273 83.5728 142.78C83.1061 142.273 82.7461 141.68 82.4928 141C82.2528 140.32 82.1328 139.587 82.1328 138.8V138.34C82.1328 137.553 82.2461 136.82 82.4728 136.14C82.7128 135.46 83.0528 134.867 83.4928 134.36C83.9461 133.84 84.4861 133.44 85.1128 133.16C85.7394 132.867 86.4394 132.72 87.2128 132.72C88.0928 132.72 88.8528 132.913 89.4928 133.3C90.1328 133.673 90.6328 134.233 90.9928 134.98C91.3528 135.713 91.5528 136.62 91.5928 137.7L90.7528 136.92V129.4H93.9728V144H91.4328V139.46H91.8728C91.8328 140.5 91.6128 141.387 91.2128 142.12C90.8261 142.853 90.2994 143.413 89.6328 143.8C88.9661 144.173 88.1994 144.36 87.3328 144.36ZM88.1328 141.68C88.6261 141.68 89.0728 141.573 89.4728 141.36C89.8861 141.133 90.2128 140.807 90.4528 140.38C90.7061 139.953 90.8328 139.44 90.8328 138.84V138.1C90.8328 137.513 90.7061 137.02 90.4528 136.62C90.1994 136.22 89.8661 135.913 89.4528 135.7C89.0394 135.487 88.5928 135.38 88.1128 135.38C87.5794 135.38 87.0994 135.52 86.6728 135.8C86.2594 136.067 85.9328 136.44 85.6928 136.92C85.4528 137.387 85.3328 137.933 85.3328 138.56C85.3328 139.2 85.4528 139.753 85.6928 140.22C85.9328 140.687 86.2661 141.047 86.6928 141.3C87.1194 141.553 87.5994 141.68 88.1328 141.68ZM101.495 144.38C100.562 144.38 99.7353 144.22 99.0153 143.9C98.3086 143.58 97.7153 143.153 97.2353 142.62C96.7686 142.073 96.4086 141.467 96.1553 140.8C95.9153 140.12 95.7953 139.427 95.7953 138.72V138.32C95.7953 137.587 95.9153 136.887 96.1553 136.22C96.4086 135.54 96.7686 134.933 97.2353 134.4C97.7019 133.867 98.2819 133.447 98.9753 133.14C99.6819 132.82 100.482 132.66 101.375 132.66C102.549 132.66 103.535 132.927 104.335 133.46C105.149 133.98 105.769 134.667 106.195 135.52C106.622 136.36 106.835 137.28 106.835 138.28V139.36H97.1353V137.54H104.895L103.855 138.38C103.855 137.727 103.762 137.167 103.575 136.7C103.389 136.233 103.109 135.88 102.735 135.64C102.375 135.387 101.922 135.26 101.375 135.26C100.815 135.26 100.342 135.387 99.9553 135.64C99.5686 135.893 99.2753 136.267 99.0753 136.76C98.8753 137.24 98.7753 137.833 98.7753 138.54C98.7753 139.193 98.8686 139.767 99.0553 140.26C99.2419 140.74 99.5353 141.113 99.9353 141.38C100.335 141.647 100.855 141.78 101.495 141.78C102.082 141.78 102.562 141.667 102.935 141.44C103.309 141.213 103.562 140.933 103.695 140.6H106.635C106.475 141.333 106.162 141.987 105.695 142.56C105.229 143.133 104.642 143.58 103.935 143.9C103.229 144.22 102.415 144.38 101.495 144.38ZM116.955 144.38C115.848 144.38 114.888 144.173 114.075 143.76C113.275 143.333 112.655 142.72 112.215 141.92C111.788 141.12 111.575 140.147 111.575 139V138.26H114.815V139.18C114.815 139.82 115.002 140.34 115.375 140.74C115.762 141.127 116.288 141.32 116.955 141.32C117.608 141.32 118.122 141.127 118.495 140.74C118.882 140.34 119.075 139.82 119.075 139.18V131.86H122.355V139C122.355 140.147 122.135 141.12 121.695 141.92C121.268 142.72 120.648 143.333 119.835 143.76C119.035 144.173 118.075 144.38 116.955 144.38ZM113.275 132.26V129.4H122.355V132.26H113.275ZM130.067 144.38C128.747 144.38 127.633 144.173 126.727 143.76C125.82 143.333 125.133 142.76 124.667 142.04C124.2 141.307 123.967 140.467 123.967 139.52H127.147C127.147 139.893 127.247 140.24 127.447 140.56C127.66 140.88 127.98 141.14 128.407 141.34C128.833 141.527 129.387 141.62 130.067 141.62C130.68 141.62 131.193 141.54 131.607 141.38C132.02 141.22 132.333 141 132.547 140.72C132.76 140.427 132.867 140.093 132.867 139.72C132.867 139.253 132.667 138.887 132.267 138.62C131.867 138.34 131.22 138.16 130.327 138.08L129.227 137.98C127.773 137.86 126.613 137.407 125.747 136.62C124.88 135.833 124.447 134.793 124.447 133.5C124.447 132.567 124.667 131.76 125.107 131.08C125.56 130.4 126.187 129.88 126.987 129.52C127.787 129.147 128.733 128.96 129.827 128.96C130.973 128.96 131.953 129.16 132.767 129.56C133.593 129.947 134.227 130.5 134.667 131.22C135.107 131.927 135.327 132.76 135.327 133.72H132.127C132.127 133.36 132.04 133.033 131.867 132.74C131.693 132.433 131.433 132.187 131.087 132C130.753 131.813 130.333 131.72 129.827 131.72C129.347 131.72 128.94 131.8 128.607 131.96C128.287 132.12 128.047 132.34 127.887 132.62C127.727 132.887 127.647 133.18 127.647 133.5C127.647 133.913 127.793 134.273 128.087 134.58C128.38 134.887 128.86 135.067 129.527 135.12L130.647 135.22C131.713 135.313 132.653 135.547 133.467 135.92C134.28 136.28 134.913 136.78 135.367 137.42C135.833 138.047 136.067 138.813 136.067 139.72C136.067 140.653 135.82 141.473 135.327 142.18C134.847 142.873 134.16 143.413 133.267 143.8C132.373 144.187 131.307 144.38 130.067 144.38Z" fill="white"/>
<g clip-path="url(#clip0_1509_719)">
<path d="M94.4406 97.0815C93.6459 97.0815 92.9043 96.868 92.2156 96.4945L85.1698 92.2792C84.1102 91.6922 84.64 91.4787 84.9579 91.372C86.3882 90.8918 86.6531 90.7851 88.1364 89.9313C88.2954 89.8246 88.5073 89.878 88.6662 89.9847L94.0698 93.2396C94.2816 93.3463 94.5466 93.3463 94.7055 93.2396L115.843 80.9136C116.055 80.8069 116.161 80.5935 116.161 80.3267V55.7281C116.161 55.4613 116.055 55.2479 115.843 55.1412L94.7055 42.8685C94.4936 42.7618 94.2287 42.7618 94.0698 42.8685L72.9323 55.1412C72.7204 55.2479 72.6144 55.5146 72.6144 55.7281V80.3267C72.6144 80.5401 72.7204 80.8069 72.9323 80.9136L78.7067 84.2753C81.8323 85.876 83.7924 84.0085 83.7924 82.1409V57.8625C83.7924 57.5423 84.0573 57.2222 84.4281 57.2222H87.1299C87.4478 57.2222 87.7656 57.4889 87.7656 57.8625V82.1409C87.7656 86.3563 85.4876 88.8108 81.5144 88.8108C80.296 88.8108 79.3424 88.8108 76.6406 87.4768L71.0781 84.2753C69.7008 83.4749 68.8531 81.9808 68.8531 80.38V55.7815C68.8531 54.1807 69.7008 52.6866 71.0781 51.8862L92.2156 39.5603C93.54 38.8132 95.3412 38.8132 96.6656 39.5603L117.803 51.8862C119.18 52.6866 120.028 54.1807 120.028 55.7815V80.38C120.028 81.9808 119.18 83.4749 117.803 84.2753L96.6656 96.6012C96.0299 96.868 95.2352 97.0815 94.4406 97.0815Z" fill="white"/>
<path d="M101.009 80.1666C91.7387 80.1666 89.8315 75.8979 89.8315 72.2695C89.8315 71.9493 90.0964 71.6291 90.4673 71.6291H93.222C93.5399 71.6291 93.8047 71.8426 93.8047 72.1627C94.2285 74.9908 95.447 76.3781 101.062 76.3781C105.512 76.3781 107.42 75.3642 107.42 72.9631C107.42 71.5758 106.89 70.5619 99.9499 69.8683C94.1756 69.2813 90.5732 68.0007 90.5732 63.3585C90.5732 59.0363 94.1756 56.4752 100.215 56.4752C106.996 56.4752 110.333 58.8229 110.757 63.9454C110.757 64.1055 110.704 64.2656 110.598 64.4256C110.492 64.5323 110.333 64.6391 110.174 64.6391H107.367C107.102 64.6391 106.837 64.4256 106.784 64.1589C106.148 61.2241 104.506 60.2636 100.162 60.2636C95.288 60.2636 94.7053 61.9711 94.7053 63.2518C94.7053 64.7992 95.394 65.2794 101.963 66.1332C108.479 66.9869 111.552 68.2142 111.552 72.803C111.552 77.4986 107.684 80.1666 101.009 80.1666Z" fill="white"/>
</g>
<defs>
<clipPath id="clip0_1509_719">
<rect width="52" height="59" fill="white" transform="translate(67.8531 38)"/>
</clipPath>
</defs>
</svg>
