<svg width="186" height="186" viewBox="0 0 186 186" fill="none" xmlns="http://www.w3.org/2000/svg">
<rect x="1" y="1" width="184" height="184" rx="3" fill="white" stroke="black" stroke-width="2"/>
<path d="M76.5821 139.82V136.98H79.2021C79.7087 136.98 80.1421 136.88 80.5021 136.68C80.8754 136.48 81.1621 136.2 81.3621 135.84C81.5621 135.467 81.6621 135.04 81.6621 134.56C81.6621 134.053 81.5621 133.62 81.3621 133.26C81.1621 132.887 80.8754 132.607 80.5021 132.42C80.1421 132.22 79.7087 132.12 79.2021 132.12H76.5821V129.28H79.0421C80.2821 129.28 81.3421 129.487 82.2221 129.9C83.1154 130.313 83.7954 130.9 84.2621 131.66C84.7421 132.42 84.9821 133.333 84.9821 134.4V134.72C84.9821 135.76 84.7421 136.667 84.2621 137.44C83.7954 138.2 83.1154 138.787 82.2221 139.2C81.3421 139.613 80.2821 139.82 79.0421 139.82H76.5821ZM73.7021 144V129.28H76.9821V144H73.7021ZM96.0819 144V129.4H99.3619V144H96.0819ZM86.6419 144V129.4H89.9219V144H86.6419ZM89.3419 138.1V135.22H96.6619V138.1H89.3419ZM105.118 139.82V136.98H107.738C108.245 136.98 108.678 136.88 109.038 136.68C109.411 136.48 109.698 136.2 109.898 135.84C110.098 135.467 110.198 135.04 110.198 134.56C110.198 134.053 110.098 133.62 109.898 133.26C109.698 132.887 109.411 132.607 109.038 132.42C108.678 132.22 108.245 132.12 107.738 132.12H105.118V129.28H107.578C108.818 129.28 109.878 129.487 110.758 129.9C111.651 130.313 112.331 130.9 112.798 131.66C113.278 132.42 113.518 133.333 113.518 134.4V134.72C113.518 135.76 113.278 136.667 112.798 137.44C112.331 138.2 111.651 138.787 110.758 139.2C109.878 139.613 108.818 139.82 107.578 139.82H105.118ZM102.238 144V129.28H105.518V144H102.238Z" fill="black"/>
<path d="M62.9627 99V36H128.06V99H62.9627Z" fill="white"/>
<path d="M93.5 41.8319C67.8233 41.8319 47 52.7712 47 66.2853C47 79.7993 67.8233 90.7443 93.5 90.7443C119.177 90.7443 140 79.7993 140 66.2853C140 52.7712 119.177 41.8319 93.5 41.8319ZM93.5 44.2727C118.407 44.2727 137.559 54.762 137.559 66.2853C137.559 77.8086 118.392 88.3035 93.5 88.3035C68.5934 88.3035 49.4408 77.8086 49.4408 66.2853C49.4408 54.762 68.608 44.2727 93.5 44.2727ZM87.8521 49.1202L83.1522 73.3579H88.397L91.1046 59.4681C95.3739 59.4681 97.1402 59.2981 97.9161 60.1322C98.7212 60.9954 98.3086 61.9422 96.0941 73.3579H101.413C103.714 61.5556 104.732 59.0513 102.605 57.0954C100.579 55.2267 96.3818 55.5571 91.8539 55.5571L93.1027 49.1202H87.8521ZM65.8566 55.5742L61.1509 79.8289H66.4299L67.6786 73.3863C73.5871 73.3863 77.2573 73.8155 80.6489 70.639C84.4009 67.1893 85.3804 61.05 82.7037 57.9752C81.3087 56.3652 79.0628 55.5742 76.0171 55.5742H65.8566ZM107.1 55.5742L102.389 79.8289H107.679L108.928 73.3863C115.139 73.3863 118.577 73.7458 121.898 70.639C125.65 67.1893 126.63 61.05 123.953 57.9752C122.558 56.3652 120.312 55.5742 117.267 55.5742H107.1ZM74.1326 59.3943C77.4307 59.4872 79.3181 60.1856 78.5203 64.327C77.384 70.1511 73.3769 69.5491 68.4449 69.5491L70.4146 59.4C71.7805 59.4 73.0332 59.3633 74.1326 59.3943ZM115.382 59.3943C118.684 59.4872 120.551 60.1856 119.753 64.327C118.602 70.2354 114.478 69.5491 109.677 69.5491L111.647 59.4C113.02 59.4 114.281 59.3633 115.382 59.3943Z" fill="black"/>
</svg>
