<svg width="186" height="186" viewBox="0 0 186 186" fill="none" xmlns="http://www.w3.org/2000/svg">
<rect x="1" y="1" width="184" height="184" rx="3" fill="white" stroke="black" stroke-width="2"/>
<path d="M65.606 144V129.28H68.886V144H65.606ZM74.466 144L70.186 137.72H73.786L78.266 144H74.466ZM68.006 139.32V136.74H71.606C72.086 136.74 72.4993 136.647 72.846 136.46C73.206 136.26 73.4793 135.987 73.666 135.64C73.866 135.28 73.966 134.867 73.966 134.4C73.966 133.933 73.866 133.527 73.666 133.18C73.4793 132.82 73.206 132.547 72.846 132.36C72.4993 132.16 72.086 132.06 71.606 132.06H68.006V129.28H71.346C72.5593 129.28 73.6126 129.467 74.506 129.84C75.3993 130.2 76.086 130.74 76.566 131.46C77.046 132.18 77.286 133.087 77.286 134.18V134.5C77.286 135.58 77.0393 136.48 76.546 137.2C76.066 137.907 75.3793 138.44 74.486 138.8C73.606 139.147 72.5593 139.32 71.346 139.32H68.006ZM84.46 144.38C83.5267 144.38 82.7 144.22 81.98 143.9C81.2734 143.58 80.68 143.153 80.2 142.62C79.7334 142.073 79.3734 141.467 79.12 140.8C78.88 140.12 78.76 139.427 78.76 138.72V138.32C78.76 137.587 78.88 136.887 79.12 136.22C79.3734 135.54 79.7334 134.933 80.2 134.4C80.6667 133.867 81.2467 133.447 81.94 133.14C82.6467 132.82 83.4467 132.66 84.34 132.66C85.5134 132.66 86.5 132.927 87.3 133.46C88.1134 133.98 88.7334 134.667 89.16 135.52C89.5867 136.36 89.8 137.28 89.8 138.28V139.36H80.1V137.54H87.86L86.82 138.38C86.82 137.727 86.7267 137.167 86.54 136.7C86.3534 136.233 86.0734 135.88 85.7 135.64C85.34 135.387 84.8867 135.26 84.34 135.26C83.78 135.26 83.3067 135.387 82.92 135.64C82.5334 135.893 82.24 136.267 82.04 136.76C81.84 137.24 81.74 137.833 81.74 138.54C81.74 139.193 81.8334 139.767 82.02 140.26C82.2067 140.74 82.5 141.113 82.9 141.38C83.3 141.647 83.82 141.78 84.46 141.78C85.0467 141.78 85.5267 141.667 85.9 141.44C86.2734 141.213 86.5267 140.933 86.66 140.6H89.6C89.44 141.333 89.1267 141.987 88.66 142.56C88.1934 143.133 87.6067 143.58 86.9 143.9C86.1934 144.22 85.38 144.38 84.46 144.38ZM98.1405 144V140.76H97.6005V137.24C97.6005 136.68 97.4672 136.26 97.2005 135.98C96.9338 135.7 96.5072 135.56 95.9205 135.56C95.6272 135.56 95.2405 135.567 94.7605 135.58C94.2805 135.593 93.7872 135.613 93.2805 135.64C92.7738 135.667 92.3138 135.693 91.9005 135.72V133.02C92.2072 132.993 92.5672 132.967 92.9805 132.94C93.3938 132.913 93.8205 132.893 94.2605 132.88C94.7005 132.867 95.1138 132.86 95.5005 132.86C96.6205 132.86 97.5605 133.02 98.3205 133.34C99.0938 133.66 99.6805 134.147 100.081 134.8C100.481 135.44 100.681 136.267 100.681 137.28V144H98.1405ZM94.6405 144.28C93.8538 144.28 93.1605 144.14 92.5605 143.86C91.9738 143.58 91.5138 143.18 91.1805 142.66C90.8472 142.127 90.6805 141.493 90.6805 140.76C90.6805 139.96 90.8872 139.307 91.3005 138.8C91.7138 138.28 92.2938 137.9 93.0405 137.66C93.7872 137.407 94.6472 137.28 95.6205 137.28H97.9605V139.06H95.6005C95.0405 139.06 94.6072 139.2 94.3005 139.48C94.0072 139.747 93.8605 140.113 93.8605 140.58C93.8605 141.02 94.0072 141.38 94.3005 141.66C94.6072 141.927 95.0405 142.06 95.6005 142.06C95.9605 142.06 96.2805 142 96.5605 141.88C96.8538 141.747 97.0938 141.527 97.2805 141.22C97.4672 140.913 97.5738 140.487 97.6005 139.94L98.3605 140.74C98.2938 141.5 98.1072 142.14 97.8005 142.66C97.5072 143.18 97.0938 143.58 96.5605 143.86C96.0405 144.14 95.4005 144.28 94.6405 144.28ZM107.916 144.38C106.969 144.38 106.142 144.227 105.436 143.92C104.742 143.6 104.162 143.173 103.696 142.64C103.229 142.107 102.882 141.507 102.656 140.84C102.429 140.16 102.316 139.46 102.316 138.74V138.36C102.316 137.613 102.436 136.9 102.676 136.22C102.916 135.527 103.269 134.913 103.736 134.38C104.202 133.847 104.782 133.427 105.476 133.12C106.182 132.813 106.989 132.66 107.896 132.66C108.882 132.66 109.756 132.853 110.516 133.24C111.276 133.613 111.882 134.14 112.336 134.82C112.789 135.5 113.042 136.28 113.096 137.16H109.956C109.902 136.667 109.702 136.253 109.356 135.92C109.022 135.573 108.536 135.4 107.896 135.4C107.362 135.4 106.916 135.533 106.556 135.8C106.209 136.067 105.949 136.433 105.776 136.9C105.602 137.367 105.516 137.92 105.516 138.56C105.516 139.147 105.596 139.68 105.756 140.16C105.916 140.627 106.169 140.993 106.516 141.26C106.876 141.513 107.342 141.64 107.916 141.64C108.342 141.64 108.702 141.567 108.996 141.42C109.302 141.26 109.542 141.047 109.716 140.78C109.902 140.5 110.016 140.18 110.056 139.82H113.176C113.136 140.727 112.882 141.527 112.416 142.22C111.949 142.9 111.329 143.433 110.556 143.82C109.782 144.193 108.902 144.38 107.916 144.38ZM119.802 144.14C118.695 144.14 117.802 144.007 117.122 143.74C116.442 143.46 115.942 143 115.622 142.36C115.315 141.707 115.162 140.827 115.162 139.72V130.08H118.142V139.84C118.142 140.36 118.275 140.76 118.542 141.04C118.822 141.307 119.215 141.44 119.722 141.44H121.342V144.14H119.802ZM113.502 135.38V133.04H121.342V135.38H113.502Z" fill="black"/>
<path d="M62.9626 99V36H128.06V99H62.9626Z" fill="white"/>
<g clip-path="url(#clip0_1509_745)">
<mask id="mask0_1509_745" style="mask-type:luminance" maskUnits="userSpaceOnUse" x="62" y="31" width="62" height="62">
<path d="M124 31H62V93H124V31Z" fill="white"/>
</mask>
<g mask="url(#mask0_1509_745)">
<path d="M124 61.1966C124 57.0893 118.857 53.1969 110.971 50.7831C112.79 42.7456 111.982 36.3509 108.418 34.3036C107.596 33.8234 106.636 33.5959 105.587 33.5959V36.4141C106.168 36.4141 106.636 36.5279 107.028 36.7427C108.746 37.7285 109.492 41.4818 108.911 46.3094C108.772 47.4973 108.544 48.7484 108.266 50.0248C105.789 49.4182 103.085 48.9506 100.241 48.6473C98.5353 46.3094 96.766 44.1862 94.984 42.3285C99.1039 38.4993 102.971 36.4015 105.6 36.4015V33.5833C102.124 33.5833 97.5748 36.0603 92.9747 40.3571C88.3745 36.0856 83.8251 33.6339 80.3498 33.6339V36.4521C82.9658 36.4521 86.8455 38.5372 90.9654 42.3411C89.196 44.1989 87.4268 46.3094 85.746 48.6473C82.8899 48.9506 80.1855 49.4182 77.7085 50.0374C77.4178 48.7737 77.203 47.5479 77.0514 46.3725C76.4574 41.545 77.1904 37.7916 78.8964 36.7933C79.2756 36.5658 79.7684 36.4647 80.3498 36.4647V33.6465C79.2882 33.6465 78.3278 33.874 77.4937 34.3542C73.9425 36.4015 73.1464 42.7835 74.9788 50.7957C67.1182 53.2221 62 57.102 62 61.1966C62 65.3035 67.1435 69.1961 75.0294 71.6097C73.2095 79.6472 74.0183 86.042 77.5821 88.0893C78.4036 88.5696 79.3641 88.7969 80.4256 88.7969C83.9009 88.7969 88.4505 86.32 93.0506 82.0231C97.6505 86.2947 102.2 88.7463 105.675 88.7463C106.737 88.7463 107.698 88.5189 108.532 88.0387C112.083 85.9914 112.879 79.6095 111.046 71.5971C118.882 69.1835 124 65.2911 124 61.1966ZM107.546 52.7672C107.078 54.3974 106.497 56.0782 105.84 57.7589C105.322 56.748 104.778 55.737 104.184 54.726C103.603 53.715 102.984 52.7292 102.365 51.7688C104.159 52.0342 105.89 52.3628 107.546 52.7672ZM101.758 66.2263C100.772 67.9323 99.7611 69.5498 98.7123 71.0538C96.8293 71.2181 94.921 71.3064 93 71.3064C91.0917 71.3064 89.1834 71.2181 87.3131 71.0664C86.2642 69.5624 85.2405 67.9577 84.2548 66.264C83.2943 64.6086 82.4223 62.9279 81.6262 61.2343C82.4097 59.5409 83.2943 57.8475 84.2422 56.1919C85.2279 54.4859 86.2389 52.8683 87.2878 51.3644C89.1707 51.2001 91.079 51.1116 93 51.1116C94.9083 51.1116 96.8166 51.2001 98.6869 51.3518C99.7358 52.8556 100.76 54.4606 101.745 56.154C102.706 57.8096 103.578 59.4903 104.374 61.1839C103.578 62.8773 102.706 64.5707 101.758 66.2263ZM105.84 64.5833C106.522 66.2767 107.103 67.9701 107.584 69.6131C105.928 70.0174 104.184 70.3586 102.377 70.6242C102.996 69.651 103.616 68.6526 104.197 67.6291C104.778 66.6179 105.322 65.5944 105.84 64.5833ZM93.0253 78.0675C91.8499 76.8544 90.6747 75.5023 89.512 74.0236C90.6494 74.0742 91.8122 74.1119 92.9873 74.1119C94.1754 74.1119 95.3506 74.0869 96.5007 74.0236C95.3632 75.5023 94.1878 76.8544 93.0253 78.0675ZM83.6229 70.6242C81.8284 70.3586 80.097 70.03 78.4415 69.6257C78.9091 67.9954 79.4904 66.3147 80.1476 64.6339C80.6657 65.6448 81.2091 66.6559 81.8031 67.6668C82.3971 68.6779 83.0037 69.6637 83.6229 70.6242ZM92.962 44.3253C94.1374 45.5385 95.3126 46.8907 96.4754 48.3693C95.3379 48.3187 94.1754 48.2808 93 48.2808C91.8122 48.2808 90.6368 48.3061 89.4867 48.3693C90.6241 46.8907 91.7995 45.5385 92.962 44.3253ZM83.6103 51.7688C82.991 52.7419 82.3718 53.7403 81.7905 54.7639C81.2091 55.7749 80.6657 56.7859 80.1476 57.7969C79.4651 56.1035 78.8838 54.4101 78.4036 52.7672C80.0591 52.3754 81.8031 52.0342 83.6103 51.7688ZM72.1733 67.5911C67.6996 65.6828 64.8056 63.1806 64.8056 61.1966C64.8056 59.2123 67.6996 56.6975 72.1733 54.8018C73.2601 54.3342 74.448 53.9172 75.6739 53.5254C76.3942 56.0024 77.342 58.5804 78.5173 61.2216C77.3547 63.8504 76.4195 66.4157 75.7118 68.8802C74.4607 68.4883 73.2727 68.0587 72.1733 67.5911ZM78.9723 85.6501C77.2536 84.6643 76.5079 80.911 77.0893 76.0835C77.2283 74.8955 77.4558 73.6444 77.7338 72.3682C80.2108 72.9748 82.9152 73.4423 85.7587 73.7456C87.4647 76.0835 89.234 78.2065 91.016 80.0645C86.896 83.8935 83.029 85.9914 80.4003 85.9914C79.8316 85.9787 79.3514 85.8651 78.9723 85.6501ZM108.949 76.0202C109.543 80.848 108.81 84.6013 107.103 85.5995C106.724 85.8271 106.232 85.9281 105.65 85.9281C103.034 85.9281 99.1545 83.8431 95.0346 80.0391C96.804 78.1815 98.5733 76.0709 100.254 73.733C103.11 73.4297 105.815 72.9621 108.292 72.3429C108.582 73.6193 108.81 74.8451 108.949 76.0202ZM113.814 67.5911C112.727 68.0587 111.539 68.4756 110.313 68.8675C109.593 66.3906 108.645 63.8124 107.47 61.1712C108.633 58.5424 109.568 55.9771 110.276 53.5128C111.527 53.9046 112.715 54.3342 113.827 54.8018C118.3 56.7101 121.194 59.2123 121.194 61.1966C121.182 63.1806 118.288 65.6954 113.814 67.5911Z" fill="black"/>
<path d="M92.9873 66.9719C96.177 66.9719 98.7626 64.3862 98.7626 61.1966C98.7626 58.0067 96.177 55.4211 92.9873 55.4211C89.7977 55.4211 87.212 58.0067 87.212 61.1966C87.212 64.3862 89.7977 66.9719 92.9873 66.9719Z" fill="black"/>
</g>
</g>
<defs>
<clipPath id="clip0_1509_745">
<rect width="62" height="62" fill="white" transform="translate(62 31)"/>
</clipPath>
</defs>
</svg>
