<svg width="186" height="186" viewBox="0 0 186 186" fill="none" xmlns="http://www.w3.org/2000/svg">
<rect x="1" y="1" width="184" height="184" rx="3" fill="white"/>
<rect x="1" y="1" width="184" height="184" rx="3" stroke="black" stroke-width="2"/>
<path d="M111.511 67.282C109.717 67.2913 108.163 67.7218 106.861 68.3646C106.385 67.4138 105.902 66.5773 105.822 65.9555C105.727 65.2298 105.617 64.7958 105.732 63.9313C105.846 63.0668 106.347 61.8418 106.34 61.7496C106.333 61.6575 106.228 61.2176 105.193 61.2095C104.158 61.2025 103.272 61.409 103.169 61.682C103.065 61.955 102.865 62.5698 102.742 63.2115C102.561 64.1495 100.675 67.4966 99.6057 69.2466C99.2557 68.563 98.9582 67.961 98.8963 67.485C98.8018 66.7593 98.6922 66.3253 98.8065 65.4608C98.9208 64.5963 99.4213 63.3713 99.4143 63.2791C99.4073 63.187 99.3023 62.7471 98.2675 62.739C97.2327 62.732 96.3472 62.9385 96.2433 63.2115C96.1395 63.4845 96.0275 64.1226 95.8163 64.741C95.604 65.3581 93.0992 70.9406 92.4423 72.3885C92.1075 73.1258 91.817 73.7185 91.6117 74.1221L91.6105 74.1198C91.6105 74.1198 91.5977 74.1466 91.5767 74.1921C91.4005 74.5363 91.2967 74.7265 91.2967 74.7265C91.2967 74.7265 91.2978 74.7288 91.3002 74.7335C91.1602 74.9866 91.0108 75.2211 90.9373 75.2211C90.886 75.2211 90.7822 74.548 90.9595 73.624C91.3328 71.6873 92.2277 68.668 92.2195 68.563C92.2148 68.5093 92.3863 67.9831 91.635 67.7078C90.9047 67.4406 90.6445 67.8863 90.578 67.8875C90.5138 67.8886 90.466 68.045 90.466 68.045C90.466 68.045 91.2792 64.6488 88.9143 64.6488C87.435 64.6488 85.3863 66.267 84.3772 67.7335C83.7402 68.0811 82.3763 68.8255 80.9308 69.62C80.3755 69.9256 79.8085 70.2371 79.2707 70.5335C79.2345 70.4926 79.1972 70.453 79.1598 70.4121C76.291 67.352 70.9897 65.1878 71.2137 61.073C71.2953 59.5773 71.8157 55.6386 81.4022 50.8623C89.255 46.9493 95.5422 48.0261 96.6283 50.412C98.18 53.8221 93.2683 60.1583 85.1133 61.073C82.0065 61.4218 80.3697 60.2166 79.9625 59.7686C79.5343 59.2961 79.4702 59.2751 79.3103 59.3638C79.0502 59.5085 79.2147 59.925 79.3103 60.1735C79.5542 60.807 80.5528 61.9305 82.2562 62.4905C83.7553 62.9828 87.4035 63.2523 91.8147 61.5455C96.7567 59.6345 100.615 54.3168 99.4808 49.873C98.3282 45.3533 90.8335 43.867 83.7402 46.387C79.5133 47.8873 74.9435 50.2416 71.657 53.3146C67.7498 56.9686 67.1268 60.1501 67.3835 61.479C68.2958 66.2016 74.8047 69.277 77.411 71.5555C77.2827 71.6266 77.1613 71.6931 77.0517 71.7538C75.745 72.4001 70.7832 74.9971 69.5418 77.74C68.1337 80.8515 69.7658 83.0845 70.8462 83.3855C74.1933 84.3165 77.628 82.6411 79.4748 79.8878C81.3205 77.1356 81.0953 73.5505 80.2483 71.9148C80.2378 71.895 80.2262 71.8751 80.2157 71.8541C80.5528 71.6546 80.897 71.4516 81.2377 71.251C81.9027 70.8601 82.556 70.4961 83.1218 70.1881C82.8045 71.0561 82.5723 72.098 82.4522 73.6018C82.3098 75.3681 83.0343 77.6513 83.9817 78.5496C84.3993 78.9451 84.901 78.9545 85.2183 78.9545C86.3208 78.9545 86.8237 78.0375 87.3778 76.9525C88.0568 75.6225 88.66 74.0731 88.66 74.0731C88.66 74.0731 87.904 78.2568 89.9643 78.2568C90.7157 78.2568 91.4705 77.2826 91.8077 76.7868C91.8088 76.7926 91.8088 76.795 91.8088 76.795C91.8088 76.795 91.8287 76.7623 91.8672 76.6981C91.9453 76.5791 91.9897 76.5033 91.9897 76.5033C91.9897 76.5033 91.9908 76.4951 91.9932 76.4811C92.2953 75.9573 92.965 74.7626 93.9683 72.7921C95.2657 70.2465 96.5093 67.0568 96.5093 67.0568C96.5093 67.0568 96.6248 67.8361 97.004 69.1265C97.2268 69.8848 97.7005 70.7236 98.075 71.5286C97.774 71.9463 97.5897 72.1855 97.5897 72.1855C97.5897 72.1855 97.5908 72.1901 97.5943 72.1983C97.354 72.518 97.0845 72.8621 96.8022 73.1981C95.7778 74.4173 94.5587 75.8103 94.3953 76.2116C94.2028 76.6853 94.2483 77.033 94.6205 77.3141C94.8923 77.5183 95.3753 77.551 95.8805 77.5171C96.801 77.4553 97.4473 77.2266 97.767 77.0878C98.2652 76.9116 98.845 76.6351 99.3887 76.235C100.393 75.4965 100.999 74.4406 100.94 73.0406C100.908 72.2695 100.663 71.5053 100.351 70.7843C100.442 70.6536 100.533 70.5206 100.625 70.3876C102.208 68.073 103.437 65.5296 103.437 65.5296C103.437 65.5296 103.552 66.309 103.932 67.5993C104.123 68.2515 104.502 68.9643 104.843 69.662C103.354 70.8718 102.431 72.2776 102.111 73.1993C101.518 74.905 101.982 75.6773 102.852 75.8535C103.247 75.9328 103.804 75.752 104.223 75.5746C104.745 75.402 105.371 75.1138 105.957 74.6833C106.961 73.9448 107.927 72.9111 107.869 71.5123C107.842 70.8753 107.67 70.243 107.435 69.6363C108.697 69.1101 110.331 68.8185 112.412 69.0611C116.877 69.5826 117.752 72.3698 117.585 73.5365C117.417 74.7031 116.481 75.3448 116.168 75.5385C115.855 75.7321 115.759 75.7998 115.785 75.9433C115.823 76.1521 115.968 76.1451 116.235 76.0996C116.603 76.0378 118.579 75.1511 118.664 72.9975C118.77 70.2605 116.151 67.2575 111.511 67.282ZM77.0983 78.8833C75.619 80.4968 73.554 81.1058 72.6673 80.5925C71.7107 80.0383 72.0898 77.663 73.904 75.9503C75.01 74.9073 76.438 73.946 77.3853 73.3545C77.6012 73.225 77.9173 73.0348 78.3023 72.8038C78.3665 72.7676 78.4027 72.7478 78.4027 72.7478L78.4015 72.7455C78.4762 72.7011 78.552 72.6556 78.6302 72.6078C79.2917 75.045 78.6512 77.1905 77.0983 78.8833ZM87.8725 71.5601C87.358 72.8155 86.28 76.0285 85.6232 75.8558C85.0597 75.7076 84.7167 73.2658 85.5112 70.8625C85.9102 69.6526 86.7642 68.2071 87.2658 67.646C88.0732 66.743 88.9622 66.4478 89.178 66.8141C89.4522 67.2808 88.1957 70.7726 87.8725 71.5601ZM96.773 75.8068C96.5548 75.9211 96.3542 75.9923 96.262 75.9375C96.1932 75.8966 96.3518 75.7461 96.3518 75.7461C96.3518 75.7461 97.4648 74.548 97.9035 74.0031C98.159 73.6858 98.4542 73.309 98.7762 72.889C98.7785 72.931 98.7797 72.973 98.7797 73.0138C98.7773 74.4488 97.3913 75.4171 96.773 75.8068ZM103.629 74.2435C103.466 74.128 103.494 73.7535 104.03 72.5856C104.24 72.1271 104.72 71.356 105.553 70.6186C105.65 70.922 105.708 71.2125 105.707 71.4831C105.697 73.2891 104.409 73.9635 103.629 74.2435Z" fill="black"/>
<path d="M49.6305 144.38C48.3105 144.38 47.1972 144.173 46.2905 143.76C45.3839 143.333 44.6972 142.76 44.2305 142.04C43.7639 141.307 43.5305 140.467 43.5305 139.52H46.7105C46.7105 139.893 46.8105 140.24 47.0105 140.56C47.2239 140.88 47.5439 141.14 47.9705 141.34C48.3972 141.527 48.9505 141.62 49.6305 141.62C50.2439 141.62 50.7572 141.54 51.1705 141.38C51.5839 141.22 51.8972 141 52.1105 140.72C52.3239 140.427 52.4305 140.093 52.4305 139.72C52.4305 139.253 52.2305 138.887 51.8305 138.62C51.4305 138.34 50.7839 138.16 49.8905 138.08L48.7905 137.98C47.3372 137.86 46.1772 137.407 45.3105 136.62C44.4439 135.833 44.0105 134.793 44.0105 133.5C44.0105 132.567 44.2305 131.76 44.6705 131.08C45.1239 130.4 45.7505 129.88 46.5505 129.52C47.3505 129.147 48.2972 128.96 49.3905 128.96C50.5372 128.96 51.5172 129.16 52.3305 129.56C53.1572 129.947 53.7905 130.5 54.2305 131.22C54.6705 131.927 54.8905 132.76 54.8905 133.72H51.6905C51.6905 133.36 51.6039 133.033 51.4305 132.74C51.2572 132.433 50.9972 132.187 50.6505 132C50.3172 131.813 49.8972 131.72 49.3905 131.72C48.9105 131.72 48.5039 131.8 48.1705 131.96C47.8505 132.12 47.6105 132.34 47.4505 132.62C47.2905 132.887 47.2105 133.18 47.2105 133.5C47.2105 133.913 47.3572 134.273 47.6505 134.58C47.9439 134.887 48.4239 135.067 49.0905 135.12L50.2105 135.22C51.2772 135.313 52.2172 135.547 53.0305 135.92C53.8439 136.28 54.4772 136.78 54.9305 137.42C55.3972 138.047 55.6305 138.813 55.6305 139.72C55.6305 140.653 55.3839 141.473 54.8905 142.18C54.4105 142.873 53.7239 143.413 52.8305 143.8C51.9372 144.187 50.8705 144.38 49.6305 144.38ZM63.9304 144V140.76H63.3904V137.24C63.3904 136.68 63.2571 136.26 62.9904 135.98C62.7237 135.7 62.2971 135.56 61.7104 135.56C61.4171 135.56 61.0304 135.567 60.5504 135.58C60.0704 135.593 59.5771 135.613 59.0704 135.64C58.5637 135.667 58.1037 135.693 57.6904 135.72V133.02C57.9971 132.993 58.3571 132.967 58.7704 132.94C59.1837 132.913 59.6104 132.893 60.0504 132.88C60.4904 132.867 60.9037 132.86 61.2904 132.86C62.4104 132.86 63.3504 133.02 64.1104 133.34C64.8837 133.66 65.4704 134.147 65.8704 134.8C66.2704 135.44 66.4704 136.267 66.4704 137.28V144H63.9304ZM60.4304 144.28C59.6437 144.28 58.9504 144.14 58.3504 143.86C57.7637 143.58 57.3037 143.18 56.9704 142.66C56.6371 142.127 56.4704 141.493 56.4704 140.76C56.4704 139.96 56.6771 139.307 57.0904 138.8C57.5037 138.28 58.0837 137.9 58.8304 137.66C59.5771 137.407 60.4371 137.28 61.4104 137.28H63.7504V139.06H61.3904C60.8304 139.06 60.3971 139.2 60.0904 139.48C59.7971 139.747 59.6504 140.113 59.6504 140.58C59.6504 141.02 59.7971 141.38 60.0904 141.66C60.3971 141.927 60.8304 142.06 61.3904 142.06C61.7504 142.06 62.0704 142 62.3504 141.88C62.6437 141.747 62.8837 141.527 63.0704 141.22C63.2571 140.913 63.3637 140.487 63.3904 139.94L64.1504 140.74C64.0837 141.5 63.8971 142.14 63.5904 142.66C63.2971 143.18 62.8837 143.58 62.3504 143.86C61.8304 144.14 61.1904 144.28 60.4304 144.28ZM72.9454 144.34C71.3854 144.34 70.1654 144.02 69.2854 143.38C68.4054 142.74 67.9387 141.84 67.8854 140.68H70.7254C70.7787 141.027 70.9854 141.34 71.3454 141.62C71.7187 141.887 72.2721 142.02 73.0054 142.02C73.5654 142.02 74.0254 141.927 74.3854 141.74C74.7587 141.54 74.9454 141.26 74.9454 140.9C74.9454 140.58 74.8054 140.327 74.5254 140.14C74.2454 139.94 73.7454 139.8 73.0254 139.72L72.1654 139.64C70.8454 139.507 69.8521 139.14 69.1854 138.54C68.5321 137.94 68.2054 137.173 68.2054 136.24C68.2054 135.467 68.3987 134.82 68.7854 134.3C69.1721 133.78 69.7054 133.387 70.3854 133.12C71.0787 132.853 71.8654 132.72 72.7454 132.72C74.1587 132.72 75.2987 133.033 76.1654 133.66C77.0321 134.273 77.4854 135.167 77.5254 136.34H74.6854C74.6321 135.98 74.4454 135.68 74.1254 135.44C73.8054 135.187 73.3321 135.06 72.7054 135.06C72.2121 135.06 71.8187 135.153 71.5254 135.34C71.2321 135.527 71.0854 135.78 71.0854 136.1C71.0854 136.407 71.2121 136.64 71.4654 136.8C71.7187 136.96 72.1321 137.073 72.7054 137.14L73.5654 137.22C74.9121 137.367 75.9587 137.74 76.7054 138.34C77.4521 138.94 77.8254 139.747 77.8254 140.76C77.8254 141.493 77.6254 142.133 77.2254 142.68C76.8254 143.213 76.2587 143.627 75.5254 143.92C74.7921 144.2 73.9321 144.34 72.9454 144.34ZM83.6587 144.34C82.0987 144.34 80.8787 144.02 79.9987 143.38C79.1187 142.74 78.652 141.84 78.5987 140.68H81.4387C81.492 141.027 81.6987 141.34 82.0587 141.62C82.432 141.887 82.9853 142.02 83.7187 142.02C84.2787 142.02 84.7387 141.927 85.0987 141.74C85.472 141.54 85.6587 141.26 85.6587 140.9C85.6587 140.58 85.5187 140.327 85.2387 140.14C84.9587 139.94 84.4587 139.8 83.7387 139.72L82.8787 139.64C81.5587 139.507 80.5653 139.14 79.8987 138.54C79.2453 137.94 78.9187 137.173 78.9187 136.24C78.9187 135.467 79.112 134.82 79.4987 134.3C79.8853 133.78 80.4187 133.387 81.0987 133.12C81.792 132.853 82.5787 132.72 83.4587 132.72C84.872 132.72 86.012 133.033 86.8787 133.66C87.7453 134.273 88.1987 135.167 88.2387 136.34H85.3987C85.3453 135.98 85.1587 135.68 84.8387 135.44C84.5187 135.187 84.0453 135.06 83.4187 135.06C82.9253 135.06 82.532 135.153 82.2387 135.34C81.9453 135.527 81.7987 135.78 81.7987 136.1C81.7987 136.407 81.9253 136.64 82.1787 136.8C82.432 136.96 82.8453 137.073 83.4187 137.14L84.2787 137.22C85.6253 137.367 86.672 137.74 87.4187 138.34C88.1653 138.94 88.5387 139.747 88.5387 140.76C88.5387 141.493 88.3387 142.133 87.9387 142.68C87.5387 143.213 86.972 143.627 86.2387 143.92C85.5053 144.2 84.6453 144.34 83.6587 144.34ZM89.112 145.2L93.252 128.4H96.532L92.392 145.2H89.112ZM103.216 144.38C101.896 144.38 100.783 144.173 99.8765 143.76C98.9698 143.333 98.2831 142.76 97.8165 142.04C97.3498 141.307 97.1165 140.467 97.1165 139.52H100.296C100.296 139.893 100.396 140.24 100.596 140.56C100.81 140.88 101.13 141.14 101.556 141.34C101.983 141.527 102.536 141.62 103.216 141.62C103.83 141.62 104.343 141.54 104.756 141.38C105.17 141.22 105.483 141 105.696 140.72C105.91 140.427 106.016 140.093 106.016 139.72C106.016 139.253 105.816 138.887 105.416 138.62C105.016 138.34 104.37 138.16 103.476 138.08L102.376 137.98C100.923 137.86 99.7631 137.407 98.8965 136.62C98.0298 135.833 97.5965 134.793 97.5965 133.5C97.5965 132.567 97.8165 131.76 98.2565 131.08C98.7098 130.4 99.3365 129.88 100.136 129.52C100.936 129.147 101.883 128.96 102.976 128.96C104.123 128.96 105.103 129.16 105.916 129.56C106.743 129.947 107.376 130.5 107.816 131.22C108.256 131.927 108.476 132.76 108.476 133.72H105.276C105.276 133.36 105.19 133.033 105.016 132.74C104.843 132.433 104.583 132.187 104.236 132C103.903 131.813 103.483 131.72 102.976 131.72C102.496 131.72 102.09 131.8 101.756 131.96C101.436 132.12 101.196 132.34 101.036 132.62C100.876 132.887 100.796 133.18 100.796 133.5C100.796 133.913 100.943 134.273 101.236 134.58C101.53 134.887 102.01 135.067 102.676 135.12L103.796 135.22C104.863 135.313 105.803 135.547 106.616 135.92C107.43 136.28 108.063 136.78 108.516 137.42C108.983 138.047 109.216 138.813 109.216 139.72C109.216 140.653 108.97 141.473 108.476 142.18C107.996 142.873 107.31 143.413 106.416 143.8C105.523 144.187 104.456 144.38 103.216 144.38ZM115.816 144.38C114.87 144.38 114.043 144.227 113.336 143.92C112.643 143.6 112.063 143.173 111.596 142.64C111.13 142.107 110.783 141.507 110.556 140.84C110.33 140.16 110.216 139.46 110.216 138.74V138.36C110.216 137.613 110.336 136.9 110.576 136.22C110.816 135.527 111.17 134.913 111.636 134.38C112.103 133.847 112.683 133.427 113.376 133.12C114.083 132.813 114.89 132.66 115.796 132.66C116.783 132.66 117.656 132.853 118.416 133.24C119.176 133.613 119.783 134.14 120.236 134.82C120.69 135.5 120.943 136.28 120.996 137.16H117.856C117.803 136.667 117.603 136.253 117.256 135.92C116.923 135.573 116.436 135.4 115.796 135.4C115.263 135.4 114.816 135.533 114.456 135.8C114.11 136.067 113.85 136.433 113.676 136.9C113.503 137.367 113.416 137.92 113.416 138.56C113.416 139.147 113.496 139.68 113.656 140.16C113.816 140.627 114.07 140.993 114.416 141.26C114.776 141.513 115.243 141.64 115.816 141.64C116.243 141.64 116.603 141.567 116.896 141.42C117.203 141.26 117.443 141.047 117.616 140.78C117.803 140.5 117.916 140.18 117.956 139.82H121.076C121.036 140.727 120.783 141.527 120.316 142.22C119.85 142.9 119.23 143.433 118.456 143.82C117.683 144.193 116.803 144.38 115.816 144.38ZM126.883 144.34C125.323 144.34 124.103 144.02 123.223 143.38C122.343 142.74 121.876 141.84 121.823 140.68H124.663C124.716 141.027 124.923 141.34 125.283 141.62C125.656 141.887 126.21 142.02 126.943 142.02C127.503 142.02 127.963 141.927 128.323 141.74C128.696 141.54 128.883 141.26 128.883 140.9C128.883 140.58 128.743 140.327 128.463 140.14C128.183 139.94 127.683 139.8 126.963 139.72L126.103 139.64C124.783 139.507 123.79 139.14 123.123 138.54C122.47 137.94 122.143 137.173 122.143 136.24C122.143 135.467 122.336 134.82 122.723 134.3C123.11 133.78 123.643 133.387 124.323 133.12C125.016 132.853 125.803 132.72 126.683 132.72C128.096 132.72 129.236 133.033 130.103 133.66C130.97 134.273 131.423 135.167 131.463 136.34H128.623C128.57 135.98 128.383 135.68 128.063 135.44C127.743 135.187 127.27 135.06 126.643 135.06C126.15 135.06 125.756 135.153 125.463 135.34C125.17 135.527 125.023 135.78 125.023 136.1C125.023 136.407 125.15 136.64 125.403 136.8C125.656 136.96 126.07 137.073 126.643 137.14L127.503 137.22C128.85 137.367 129.896 137.74 130.643 138.34C131.39 138.94 131.763 139.747 131.763 140.76C131.763 141.493 131.563 142.133 131.163 142.68C130.763 143.213 130.196 143.627 129.463 143.92C128.73 144.2 127.87 144.34 126.883 144.34ZM137.596 144.34C136.036 144.34 134.816 144.02 133.936 143.38C133.056 142.74 132.59 141.84 132.536 140.68H135.376C135.43 141.027 135.636 141.34 135.996 141.62C136.37 141.887 136.923 142.02 137.656 142.02C138.216 142.02 138.676 141.927 139.036 141.74C139.41 141.54 139.596 141.26 139.596 140.9C139.596 140.58 139.456 140.327 139.176 140.14C138.896 139.94 138.396 139.8 137.676 139.72L136.816 139.64C135.496 139.507 134.503 139.14 133.836 138.54C133.183 137.94 132.856 137.173 132.856 136.24C132.856 135.467 133.05 134.82 133.436 134.3C133.823 133.78 134.356 133.387 135.036 133.12C135.73 132.853 136.516 132.72 137.396 132.72C138.81 132.72 139.95 133.033 140.816 133.66C141.683 134.273 142.136 135.167 142.176 136.34H139.336C139.283 135.98 139.096 135.68 138.776 135.44C138.456 135.187 137.983 135.06 137.356 135.06C136.863 135.06 136.47 135.153 136.176 135.34C135.883 135.527 135.736 135.78 135.736 136.1C135.736 136.407 135.863 136.64 136.116 136.8C136.37 136.96 136.783 137.073 137.356 137.14L138.216 137.22C139.563 137.367 140.61 137.74 141.356 138.34C142.103 138.94 142.476 139.747 142.476 140.76C142.476 141.493 142.276 142.133 141.876 142.68C141.476 143.213 140.91 143.627 140.176 143.92C139.443 144.2 138.583 144.34 137.596 144.34Z" fill="black"/>
</svg>
