<svg width="66" height="66" viewBox="0 0 66 66" fill="none" xmlns="http://www.w3.org/2000/svg">
<g clip-path="url(#clip0_1523_659)">
<path d="M33 21.2143C39.5093 21.2143 44.7857 26.4907 44.7857 33C44.7857 39.5093 39.5093 44.7857 33 44.7857C26.4907 44.7857 21.2143 39.5093 21.2143 33C21.2143 26.4907 26.4907 21.2143 33 21.2143ZM37.0656 37.804C37.2823 37.1388 38.2979 30.5101 38.4235 29.204C38.4614 28.8084 38.3364 28.5455 38.0914 28.4282C37.7953 28.2857 37.3566 28.357 36.8478 28.5404C36.1499 28.792 27.2276 32.5803 26.7121 32.7997C26.2232 33.0072 25.761 33.2337 25.761 33.5616C25.761 33.7922 25.8978 33.9219 26.275 34.0566C26.6675 34.1965 27.656 34.4963 28.2396 34.6572C28.8017 34.8124 29.4417 34.6777 29.8004 34.4548C30.1807 34.2186 34.5685 31.2824 34.8837 31.0251C35.1983 30.7679 35.4494 31.0974 35.1922 31.3551C34.9349 31.6124 31.9229 34.5357 31.5258 34.9406C31.0436 35.432 31.3859 35.9413 31.7092 36.1453C32.0787 36.3779 34.7356 38.1601 35.1358 38.446C35.536 38.732 35.9418 38.8616 36.3133 38.8616C36.6848 38.8616 36.8806 38.3722 37.0656 37.804Z" fill="black"/>
</g>
<rect x="1" y="1" width="64" height="64" rx="3" stroke="black" stroke-width="2"/>
<defs>
<clipPath id="clip0_1523_659">
<rect width="23.5714" height="23.5714" fill="white" transform="translate(21.2143 21.2143)"/>
</clipPath>
</defs>
</svg>
