<svg width="186" height="186" viewBox="0 0 186 186" fill="none" xmlns="http://www.w3.org/2000/svg">
<rect x="1" y="1" width="184" height="184" rx="3" fill="white" stroke="black" stroke-width="2"/>
<path d="M78.3186 144L73.8786 129.4H77.2586L80.7786 141.72L80.0186 141.34H82.0586L81.2586 141.72L84.5186 129.4H87.7986L83.6586 144H78.3186ZM92.7303 144.34C91.4636 144.34 90.4903 143.933 89.8103 143.12C89.1303 142.293 88.7903 141.053 88.7903 139.4V133.04H91.9903V139.56C91.9903 140.147 92.1569 140.613 92.4903 140.96C92.8236 141.307 93.2703 141.48 93.8303 141.48C94.4036 141.48 94.8703 141.3 95.2303 140.94C95.5903 140.58 95.7703 140.093 95.7703 139.48V133.04H98.9703V144H96.4303V139.38H96.6503C96.6503 140.487 96.5036 141.413 96.2103 142.16C95.9303 142.893 95.5103 143.44 94.9503 143.8C94.3903 144.16 93.6969 144.34 92.8703 144.34H92.7303ZM106.541 144.38C105.608 144.38 104.781 144.22 104.061 143.9C103.354 143.58 102.761 143.153 102.281 142.62C101.814 142.073 101.454 141.467 101.201 140.8C100.961 140.12 100.841 139.427 100.841 138.72V138.32C100.841 137.587 100.961 136.887 101.201 136.22C101.454 135.54 101.814 134.933 102.281 134.4C102.748 133.867 103.328 133.447 104.021 133.14C104.728 132.82 105.528 132.66 106.421 132.66C107.594 132.66 108.581 132.927 109.381 133.46C110.194 133.98 110.814 134.667 111.241 135.52C111.668 136.36 111.881 137.28 111.881 138.28V139.36H102.181V137.54H109.941L108.901 138.38C108.901 137.727 108.808 137.167 108.621 136.7C108.434 136.233 108.154 135.88 107.781 135.64C107.421 135.387 106.968 135.26 106.421 135.26C105.861 135.26 105.388 135.387 105.001 135.64C104.614 135.893 104.321 136.267 104.121 136.76C103.921 137.24 103.821 137.833 103.821 138.54C103.821 139.193 103.914 139.767 104.101 140.26C104.288 140.74 104.581 141.113 104.981 141.38C105.381 141.647 105.901 141.78 106.541 141.78C107.128 141.78 107.608 141.667 107.981 141.44C108.354 141.213 108.608 140.933 108.741 140.6H111.681C111.521 141.333 111.208 141.987 110.741 142.56C110.274 143.133 109.688 143.58 108.981 143.9C108.274 144.22 107.461 144.38 106.541 144.38Z" fill="black"/>
<path d="M62.9626 99V36H128.06V99H62.9626Z" fill="white"/>
<path d="M112.175 41.25H101.375L93.5 54.1125L86.75 41.25H62L93.5 96.375L125 41.25H112.175ZM69.875 45.8438H77.525L93.5 74.325L109.475 45.8438H117.125L93.5 87.1875L69.875 45.8438Z" fill="black"/>
</svg>
